<svg width="50" height="72" viewBox="0 0 50 72" fill="none" xmlns="http://www.w3.org/2000/svg">
<g clip-path="url(#clip0)">
<path d="M50 14.3036L45.4449 65.3326L24.9694 71.0091L4.5503 65.3406L0 14.3036H50Z" fill="#264DE4"/>
<path d="M41.5452 62.0833L45.4378 18.4767H25V66.6703L41.5452 62.0833Z" fill="#2965F1"/>
<path d="M10.4315 37.4056L10.9925 43.665H25V37.4056H10.4315Z" fill="#EBEBEB"/>
<path d="M25 24.7363H24.9783H9.30418L9.87319 30.9958H25V24.7363Z" fill="#EBEBEB"/>
<path d="M25 60.1746V53.6622L24.9726 53.6695L18.0014 51.7871L17.5557 46.7949H14.1682H11.2722L12.1491 56.6231L24.9712 60.1826L25 60.1746Z" fill="#EBEBEB"/>
<path d="M11.7672 0.434021H19.3485V3.60439H14.9375V6.77476H19.3485V9.94512H11.7672V0.434021Z" fill="#ECECEC"/>
<path d="M20.8647 0.434021H28.4461V3.19086H24.0351V3.74223H28.4461V10.083H20.8647V7.18828H25.2757V6.63691H20.8647V0.434021Z" fill="#ECECEC"/>
<path d="M29.9623 0.434021H37.5436V3.19086H33.1327V3.74223H37.5436V10.083H29.9623V7.18828H34.3732V6.63691H29.9623V0.434021Z" fill="#ECECEC"/>
<path d="M32.6862 43.665L31.9596 51.7831L24.9784 53.6674V60.1796L37.8106 56.6231L37.9048 55.5656L39.3757 39.0865L39.5284 37.4056L40.6584 24.7363H24.9784V30.9958H33.7986L33.229 37.4056H24.9784V43.665H32.6862Z" fill="white"/>
</g>
<defs>
<clipPath id="clip0">
<rect width="50" height="70.5751" fill="white" transform="translate(0 0.434021)"/>
</clipPath>
</defs>
</svg>
