<svg width="36" height="50" viewBox="0 0 36 50" fill="none" xmlns="http://www.w3.org/2000/svg">
<g clip-path="url(#clip0)">
<path d="M3.30078 0H5.54687V2.22656H7.61719V0H9.86328V6.73828H7.61719V4.49219H5.56641V6.73828H3.30078V0ZM12.832 2.24609H10.8496V0H17.0703V2.24609H15.0781V6.73828H12.832V2.24609ZM18.0566 0H20.4102L21.8555 2.37305L23.3008 0H25.6543V6.73828H23.4082V3.39844L21.8359 5.82031L20.2637 3.39844V6.73828H18.0566V0ZM26.7676 0H29.0137V4.51172H32.1973V6.73828H26.7676" fill="#ECECEC"/>
<path d="M3.22266 45.9961L0 9.82422H35.4297L32.207 45.9766L17.6855 50" fill="#E44D26"/>
<path d="M17.7148 46.9238V12.793H32.1973L29.4336 43.6523" fill="#F16529"/>
<path d="M6.58203 17.2168H17.7148V21.6504H11.4453L11.8555 26.1914H17.7148V30.6152H7.79297L6.58203 17.2168ZM7.98828 32.8418H12.4414L12.7539 36.3867L17.7148 37.7148V42.3438L8.61328 39.8047" fill="#EBEBEB"/>
<path d="M28.8086 17.2168H17.6953V21.6504H28.3984L28.8086 17.2168ZM27.998 26.1914H17.6953V30.625H23.1641L22.6465 36.3867L17.6953 37.7148V42.3242L26.7773 39.8047" fill="white"/>
</g>
<defs>
<clipPath id="clip0">
<rect width="35.43" height="50" fill="white"/>
</clipPath>
</defs>
</svg>
