<svg width="64" height="65" viewBox="0 0 64 65" fill="none" xmlns="http://www.w3.org/2000/svg">
<g clip-path="url(#clip0)">
<path d="M57.327 13.2444C53.4584 8.23485 48.1911 4.48507 42.1913 2.46929C36.1915 0.453506 29.7286 0.262262 23.6201 1.91974C17.5116 3.57723 12.0318 7.00899 7.87376 11.781C3.71573 16.553 1.06625 22.4509 0.260388 28.7288C-0.54547 35.0067 0.528498 41.3826 3.34647 47.05C6.16443 52.7175 10.5998 57.422 16.0917 60.5686C21.5835 63.7152 27.8852 65.1624 34.1996 64.7274C40.514 64.2923 46.5576 61.9944 51.566 58.1244C65.546 47.3204 68.126 27.2294 57.326 13.2444H57.327Z" fill="#FF6D38"/>
<path d="M42.793 21.1924L29.3 34.7924L25.487 30.8724C38.767 17.5924 40.1 18.7924 42.794 21.1924H42.793Z" fill="#ECECEC"/>
<path d="M29.3 35.1644C29.1805 35.1614 29.0664 35.114 28.98 35.0314L25.14 31.1914C25.0535 31.1019 25.0052 30.9823 25.0052 30.8579C25.0052 30.7334 25.0535 30.6139 25.14 30.5244C38.233 17.4314 40.02 18.0444 43.113 20.8444C43.218 20.9284 43.277 21.0564 43.273 21.1914C43.293 21.3214 43.243 21.4544 43.14 21.5384L29.647 35.0324C29.552 35.1194 29.429 35.1664 29.3 35.1654V35.1644ZM26.153 30.8714L29.3 34.0184L42.1 21.2184C41.658 20.6645 41.0274 20.293 40.3288 20.1749C39.6301 20.0569 38.9124 20.2005 38.313 20.5784C35.993 21.6184 32.26 24.7914 26.153 30.8714V30.8714Z" fill="#ECECEC"/>
<path d="M33.167 38.5524L29.487 34.7924L42.98 21.4584C46.607 25.0054 41.22 30.9254 33.167 38.5514V38.5524Z" fill="#ECECEC"/>
<path d="M33.167 39.0324C33.049 39.023 32.9369 38.9764 32.847 38.8994L29.087 35.2194C29.0306 35.0826 29.0306 34.9291 29.087 34.7924C29.047 34.6804 29.047 34.5574 29.087 34.4454L42.58 20.9524C42.775 20.7694 43.078 20.7694 43.273 20.9524C44.158 21.7664 44.643 22.9244 44.606 24.1254C44.606 27.7254 40.499 32.2584 33.513 38.8724C33.4197 38.9647 33.2969 39.0214 33.166 39.0324H33.167ZM30.18 34.7924L33.193 37.8044C38.526 32.7644 43.62 27.5644 43.646 24.0444C43.675 23.2982 43.4283 22.5674 42.953 21.9914L30.18 34.7924Z" fill="#ECECEC"/>
<path d="M25.593 30.9524L28.26 33.6194C28.277 33.6344 28.2907 33.6528 28.3 33.6735C28.3093 33.6942 28.3142 33.7167 28.3142 33.7394C28.3142 33.7621 28.3093 33.7845 28.3 33.8052C28.2907 33.8259 28.277 33.8443 28.26 33.8594L22.633 35.0594C22.4 35.1094 22.163 34.9974 22.051 34.7874C21.939 34.5774 21.981 34.3174 22.153 34.1524L25.433 30.8994C25.433 30.8994 25.54 30.8994 25.593 30.9524V30.9524Z" fill="#ECECEC"/>
<path d="M22.5 35.5924C22.3222 35.5902 22.148 35.5424 21.9939 35.4536C21.8399 35.3649 21.7111 35.2381 21.62 35.0854C21.41 34.6884 21.485 34.1994 21.807 33.8854L25.06 30.6054C25.1773 30.5005 25.3292 30.4426 25.4865 30.4426C25.6439 30.4426 25.7957 30.5005 25.913 30.6054L28.58 33.2724C28.738 33.4224 28.8 33.6494 28.74 33.8594C28.68 34.0694 28.504 34.2364 28.287 34.2864L22.66 35.4864L22.5 35.5924ZM25.487 31.5394L22.474 34.5524L27.461 33.4854L25.487 31.5394Z" fill="#ECECEC"/>
<path d="M49.967 13.6984C48.037 11.8364 45.005 11.7584 42.981 13.5154C40.957 15.2724 40.611 18.2884 42.187 20.4584C43.763 22.6284 46.734 23.2364 49.034 21.8584L45.407 18.2314L49.967 13.6984Z" fill="#ECECEC"/>
<path d="M46.367 23.0844C45.2582 23.0702 44.178 22.73 43.2612 22.1062C42.3443 21.4824 41.6313 20.6026 41.211 19.5764C40.351 17.4784 40.827 15.0704 42.411 13.4584C43.4786 12.4103 44.9149 11.8232 46.411 11.8232C47.9071 11.8232 49.3434 12.4103 50.411 13.4584C50.513 13.5444 50.571 13.6714 50.571 13.8054C50.5708 13.8713 50.5563 13.9364 50.5287 13.9963C50.5011 14.0561 50.461 14.1094 50.411 14.1524L46.091 18.2324L49.371 21.4594C49.4241 21.5101 49.464 21.5731 49.4872 21.6428C49.5104 21.7126 49.5162 21.7869 49.504 21.8594C49.4961 21.9293 49.4729 21.9966 49.4361 22.0566C49.3993 22.1165 49.3498 22.1677 49.291 22.2064C48.4098 22.7571 47.3968 23.0611 46.358 23.0864L46.367 23.0844ZM46.367 12.7374C44.467 12.7474 42.767 13.8904 42.054 15.6374C41.341 17.3844 41.729 19.3954 43.061 20.7374C44.417 22.1004 46.461 22.4924 48.234 21.7244L45.087 18.5774C44.982 18.4934 44.923 18.3654 44.927 18.2304C44.931 18.1054 44.989 17.9884 45.087 17.9104L49.247 13.7234C48.42 13.0894 47.409 12.7434 46.367 12.7364V12.7374Z" fill="#ECECEC"/>
<path d="M50.047 13.7784L45.487 18.3114L49.114 21.9384C49.479 21.7288 49.8189 21.4782 50.127 21.1914C52.103 19.0914 52.067 15.8234 50.047 13.7784Z" fill="#ECECEC"/>
<path d="M49.033 22.3384C48.9731 22.3416 48.9132 22.3314 48.8579 22.3083C48.8025 22.2853 48.753 22.2501 48.713 22.2054L45.086 18.5784C44.981 18.4944 44.922 18.3664 44.926 18.2314C44.93 18.1064 44.988 17.9894 45.086 17.9114L49.619 13.4584C49.6628 13.3924 49.7222 13.3382 49.792 13.3008C49.8618 13.2633 49.9398 13.2437 50.019 13.2437C50.0982 13.2437 50.1762 13.2633 50.246 13.3008C50.3158 13.3382 50.3752 13.3924 50.419 13.4584C50.9512 13.9798 51.3739 14.6021 51.6625 15.289C51.9512 15.9758 52.0998 16.7134 52.0998 17.4584C52.0998 18.2034 51.9512 18.9409 51.6625 19.6278C51.3739 20.3146 50.9512 20.937 50.419 21.4584C50.1051 21.7913 49.7459 22.0785 49.352 22.3114C49.2528 22.3614 49.1382 22.371 49.032 22.3384H49.033ZM46.1 18.2324L49.113 21.2454C49.3203 21.1001 49.5165 20.9397 49.7 20.7654C50.5857 19.8821 51.0846 18.6833 51.087 17.4324C51.089 16.3129 50.681 15.2315 49.94 14.3924L46.1 18.2324Z" fill="#ECECEC"/>
<path d="M43.353 21.7524C42.603 21.0484 41.436 21.0484 40.686 21.7524L28.607 33.8044L30.607 35.8314L43.38 24.6314C43.775 24.2544 43.996 23.7314 43.99 23.1854C43.984 22.6394 43.754 22.1204 43.353 21.7514V21.7524Z" fill="#ECECEC"/>
<path d="M30.5 36.3124C30.3805 36.3095 30.2664 36.262 30.18 36.1794L28.153 34.1524C28.0665 34.0629 28.0182 33.9433 28.0182 33.8189C28.0182 33.6945 28.0665 33.5749 28.153 33.4854L40.233 21.4584C41.191 20.5024 42.743 20.5024 43.7 21.4584C44.18 21.9384 44.44 22.5934 44.42 23.2714C44.392 23.9454 44.094 24.5794 43.593 25.0314L30.82 36.2314C30.727 36.2974 30.613 36.3254 30.5 36.3114V36.3124ZM29.087 33.8044L30.42 35.1644L42.953 24.2574C43.263 23.9874 43.448 23.6014 43.46 23.1904C43.472 22.7794 43.31 22.3774 43.007 22.0974C42.424 21.5174 41.483 21.5174 40.9 22.0974L29.087 33.8044Z" fill="#ECECEC"/>
<path d="M19.247 47.5384C19.2129 47.5848 19.1945 47.6408 19.1945 47.6984C19.1945 47.756 19.2129 47.812 19.247 47.8584L19.78 50.1784C19.826 50.4554 19.693 50.7314 19.448 50.8784C19.3292 50.9479 19.1914 50.9779 19.0544 50.964C18.9175 50.9502 18.7885 50.8932 18.686 50.8014L15.033 47.2814L26.42 35.8044H30.367L33.034 38.4714C28.8737 42.1088 24.2349 45.1595 19.247 47.5384V47.5384Z" fill="#ECECEC"/>
<path d="M19.007 51.4584C18.705 51.4524 18.407 51.3284 18.207 51.1114L14.714 47.6184C14.609 47.5344 14.55 47.4064 14.554 47.2714C14.558 47.1464 14.616 47.0294 14.714 46.9514L26.18 35.4584C26.2442 35.3901 26.3281 35.3436 26.42 35.3254H30.393C30.4965 35.2888 30.6095 35.2888 30.713 35.3254L33.38 37.9924C33.483 38.0874 33.533 38.2274 33.513 38.3654C33.5149 38.4316 33.5014 38.4974 33.4737 38.5576C33.4459 38.6178 33.4046 38.6708 33.353 38.7124L33.14 38.8994C28.9629 42.3817 24.3674 45.3288 19.46 47.6724L19.967 49.8324C20.0062 49.999 20.0077 50.1723 19.9714 50.3395C19.9351 50.5068 19.8619 50.6639 19.7572 50.7993C19.6524 50.9347 19.5188 51.045 19.366 51.1222C19.2132 51.1993 19.0451 51.2414 18.874 51.2454L19.007 51.4584ZM15.754 47.2714L18.9 50.4444C18.9293 50.4705 18.9672 50.485 19.0065 50.485C19.0458 50.485 19.0837 50.4705 19.113 50.4444C19.1326 50.4171 19.1432 50.3844 19.1432 50.3509C19.1432 50.3173 19.1326 50.2846 19.113 50.2574L18.58 47.9374C18.494 47.5944 18.66 47.2374 18.98 47.0844C23.7554 44.7721 28.2325 41.8887 32.313 38.4974L30.126 36.3104H26.553L15.754 47.2714Z" fill="#ECECEC"/>
<path d="M12.287 50.0184L14.954 47.3514L19.061 51.4584L12.528 51.0054C12.298 50.9884 12.103 50.8254 12.048 50.5994C11.993 50.3734 12.09 50.1394 12.288 50.0194L12.287 50.0184Z" fill="#ECECEC"/>
<path d="M19.14 51.8584L12.633 51.4054C12.247 51.3694 11.915 51.1054 11.779 50.7524C11.643 50.3994 11.726 49.9804 11.993 49.6984L14.66 47.0314C14.7495 46.9449 14.8691 46.8966 14.9935 46.8966C15.1179 46.8966 15.2375 46.9449 15.327 47.0314L19.407 51.1114C19.523 51.2714 19.523 51.4854 19.407 51.6444C19.345 51.7444 19.251 51.8194 19.14 51.8574V51.8584ZM12.633 50.3654L17.966 50.7124L15.033 47.9654L12.633 50.3654Z" fill="#ECECEC"/>
<path d="M30.74 36.1264L25.353 36.9534L28.473 33.8604L30.74 36.1264Z" fill="#ECECEC"/>
<path d="M25.353 37.4584C25.17 37.4634 25.003 37.3584 24.926 37.1914C24.8692 37.1141 24.8386 37.0207 24.8386 36.9249C24.8386 36.829 24.8692 36.7356 24.926 36.6584L28.019 33.5384C28.214 33.3554 28.517 33.3554 28.712 33.5384L30.98 35.8044C31.0253 35.8762 31.0493 35.9594 31.0493 36.0444C31.0493 36.1293 31.0253 36.2125 30.98 36.2844C30.9578 36.3719 30.9107 36.4512 30.8446 36.5128C30.7784 36.5743 30.6959 36.6155 30.607 36.6314L25.274 37.4584H25.353ZM28.473 34.5514L26.74 36.2844L29.727 35.8314L28.473 34.5514Z" fill="#ECECEC"/>
<path d="M30.74 36.1244L26.98 36.6044C26.8794 36.6272 26.7741 36.617 26.6797 36.5753C26.5853 36.5336 26.5069 36.4626 26.4561 36.3728C26.4052 36.283 26.3847 36.1792 26.3974 36.0768C26.4102 35.9744 26.4556 35.8789 26.527 35.8044L28.474 33.8574L30.74 36.1244Z" fill="#ECECEC"/>
<path d="M26.873 37.1124C26.518 37.1094 26.193 36.9154 26.02 36.6054C25.9182 36.4228 25.8787 36.212 25.9076 36.005C25.9364 35.798 26.0321 35.6061 26.18 35.4584L28.127 33.5114C28.322 33.3284 28.625 33.3284 28.82 33.5114L31.087 35.7784C31.1544 35.8422 31.2018 35.9243 31.2236 36.0146C31.2453 36.1049 31.2403 36.1995 31.2093 36.2871C31.1783 36.3746 31.1225 36.4513 31.0488 36.5078C30.9751 36.5643 30.8866 36.5982 30.794 36.6054L27.061 37.0854L26.873 37.1124ZM26.873 36.1254L29.7 35.7784L28.447 34.5254L26.847 36.1254H26.873ZM50.073 16.8454C50.0228 16.7612 49.9434 16.6984 49.8499 16.6689C49.7565 16.6394 49.6554 16.6453 49.566 16.6854C49.5219 16.7077 49.4826 16.7387 49.4507 16.7765C49.4188 16.8143 49.3947 16.8581 49.38 16.9054C49.35 17.0004 49.36 17.1034 49.406 17.1924C49.593 17.5854 49.541 18.0504 49.273 18.3924C49.203 18.4584 49.173 18.5494 49.173 18.6454C49.174 18.7391 49.2096 18.8293 49.273 18.8984C49.3414 18.9254 49.4176 18.9254 49.486 18.8984C49.5481 18.914 49.6133 18.9122 49.6744 18.8934C49.7356 18.8745 49.7905 18.8392 49.833 18.7914C50.0526 18.5225 50.1916 18.197 50.2341 17.8525C50.2766 17.508 50.2207 17.1585 50.073 16.8444V16.8454Z" fill="#ECECEC"/>
</g>
<defs>
<clipPath id="clip0">
<rect width="64" height="64" fill="white" transform="translate(0 0.804382)"/>
</clipPath>
</defs>
</svg>
