<?xml version="1.0" standalone="no"?>
<!DOCTYPE svg PUBLIC "-//W3C//DTD SVG 20010904//EN"
 "http://www.w3.org/TR/2001/REC-SVG-20010904/DTD/svg10.dtd">
<svg version="1.0" xmlns="http://www.w3.org/2000/svg"
 width="700.000000pt" height="700.000000pt" viewBox="0 0 700.000000 700.000000"
 preserveAspectRatio="xMidYMid meet">
<metadata>
Created by potrace 1.11, written by Peter Selinger 2001-2013
</metadata>
<g transform="translate(0.000000,700.000000) scale(0.100000,-0.100000)"
fill="#000000" stroke="none">
<path d="M2402 6427 c-204 -25 -366 -171 -413 -373 -7 -33 -11 -197 -11 -486
0 -241 -3 -439 -7 -439 -3 -1 -424 -2 -936 -3 -1034 -2 -972 2 -1015 -69 -20
-32 -20 -67 -20 -2340 0 -2550 -5 -2346 63 -2387 30 -19 53 -20 432 -20 372 0
402 1 428 19 59 39 79 100 53 162 -8 19 -26 41 -40 49 -14 7 -26 17 -26 22 0
4 80 8 178 7 97 0 170 -3 162 -7 -57 -25 -90 -78 -85 -135 5 -43 23 -73 62
-98 27 -18 121 -19 2853 -19 l2825 0 37 25 c25 17 41 38 48 63 8 26 10 570 8
1845 l-3 1809 -37 34 c-21 19 -46 34 -57 34 -16 0 -20 9 -23 53 -6 102 -1 122
38 136 20 7 45 28 59 49 l25 37 0 310 c0 347 -2 360 -70 399 -34 20 -53 20
-970 21 l-935 0 -2 430 c-1 255 -6 454 -12 489 -31 168 -161 313 -329 367 -67
21 -74 21 -1142 23 -591 0 -1103 -2 -1138 -7z m2196 -861 c60 -14 127 -77 152
-141 9 -24 15 -181 11 -280 l-1 -21 -1254 1 c-690 0 -1258 3 -1262 8 -4 4 -7
66 -6 137 1 107 4 137 21 172 32 68 70 101 142 122 38 11 2151 14 2197 2z"/>
</g>
</svg>
