<?xml version="1.0" standalone="no"?>
<!DOCTYPE svg PUBLIC "-//W3C//DTD SVG 20010904//EN"
 "http://www.w3.org/TR/2001/REC-SVG-20010904/DTD/svg10.dtd">
<svg version="1.0" xmlns="http://www.w3.org/2000/svg"
 width="700.000000pt" height="700.000000pt" viewBox="0 0 700.000000 700.000000"
 preserveAspectRatio="xMidYMid meet">
<metadata>
Created by potrace 1.11, written by Peter Selinger 2001-2013
</metadata>
<g transform="translate(0.000000,700.000000) scale(0.100000,-0.100000)"
fill="#000000" stroke="none">
<path d="M0 3500 l0 -3500 3500 0 3500 0 0 3500 0 3500 -3500 0 -3500 0 0
-3500z m3105 1192 c139 -38 239 -94 331 -186 129 -129 184 -265 184 -455 -1
-442 -290 -753 -765 -821 -38 -5 -211 -10 -382 -10 -207 0 -313 -3 -313 -10 0
-10 -135 -797 -146 -852 l-6 -28 -199 0 c-192 0 -199 1 -199 20 0 18 393 2297
405 2348 l6 23 502 -3 c479 -4 506 -5 582 -26z m1415 15 c0 -7 -79 -465 -175
-1017 -96 -553 -175 -1008 -175 -1012 0 -5 236 -8 525 -8 289 0 525 -3 525 -6
0 -7 -48 -279 -55 -311 l-5 -23 -725 0 c-716 0 -725 0 -725 20 0 18 393 2297
405 2348 5 22 6 22 205 22 155 0 200 -3 200 -13z"/>
<path d="M2365 4378 c-2 -7 -34 -184 -70 -393 -36 -209 -68 -393 -71 -408 l-6
-29 299 4 c321 5 345 8 457 65 67 34 156 125 189 193 39 79 60 190 52 270 -16
166 -121 272 -295 300 -98 15 -549 13 -555 -2z"/>
</g>
</svg>
