<svg width="50" height="51" viewBox="0 0 50 51" fill="none" xmlns="http://www.w3.org/2000/svg">
<g clip-path="url(#clip0)">
<path d="M12.6429 39.7216L0.571442 30.1502L6.57144 19.0073L23.7857 25.7216L12.6429 39.7216Z" fill="url(#paint0_linear)"/>
<path d="M50 14.0788L49.0714 43.0073L29.8571 50.7216L18.2857 43.293L35.2143 25.7216L27.7857 9.50732L34.4286 1.50732L50 14.0788Z" fill="url(#paint1_linear)"/>
<path d="M50 14.0788L34.7857 32.0788L27.7857 9.50732L34.4286 1.50732L50 14.0788Z" fill="url(#paint2_linear)"/>
<path d="M24.0714 42.2216L4 49.5073L7.21429 38.2216L11.4286 24.3645L0 20.5073L7.21429 0.721619L22.9286 2.65019L38.3571 20.293L24.0714 42.2216Z" fill="url(#paint3_linear)"/>
<path d="M40.6429 10.3645H9.78571V41.2216H40.6429V10.3645Z" fill="black"/>
<path d="M24.2143 35.4359H12.6429V37.3645H24.2143V35.4359Z" fill="white"/>
<path d="M21 16.7216V14.3645H14.5714V16.7216H16.4286V24.7931H14.5714V27.1502H21V24.7931H19.2143V16.7216H21Z" fill="white"/>
<path d="M27.1429 27.3645C26.1429 27.3645 25.2857 27.1502 24.6429 26.7931C24 26.4359 23.4286 25.9359 23 25.4359L24.7857 23.4359C25.1429 23.8645 25.5 24.1502 25.8571 24.3645C26.2143 24.5788 26.6429 24.7216 27.0714 24.7216C27.5714 24.7216 28 24.5788 28.3571 24.2216C28.6429 23.8645 28.7857 23.3645 28.7857 22.5788V14.3645H31.6429V22.7216C31.6429 23.5074 31.5714 24.1502 31.3571 24.7216C31.1429 25.2931 30.8571 25.7216 30.4286 26.1502C30.0714 26.5074 29.5714 26.8645 29 27.0074C28.4286 27.2216 27.8571 27.3645 27.1429 27.3645Z" fill="white"/>
</g>
<defs>
<linearGradient id="paint0_linear" x1="0.564156" y1="29.3568" x2="23.798" y2="29.3568" gradientUnits="userSpaceOnUse">
<stop offset="0.2581" stop-color="#F97A12"/>
<stop offset="0.4591" stop-color="#B07B58"/>
<stop offset="0.7241" stop-color="#577BAE"/>
<stop offset="0.9105" stop-color="#1E7CE5"/>
<stop offset="1" stop-color="#087CFA"/>
</linearGradient>
<linearGradient id="paint1_linear" x1="18.4053" y1="18.493" x2="56.7314" y2="39.7002" gradientUnits="userSpaceOnUse">
<stop stop-color="#F97A12"/>
<stop offset="0.0717995" stop-color="#CB7A3E"/>
<stop offset="0.1541" stop-color="#9E7B6A"/>
<stop offset="0.242" stop-color="#757B91"/>
<stop offset="0.3344" stop-color="#537BB1"/>
<stop offset="0.4324" stop-color="#387CCC"/>
<stop offset="0.5381" stop-color="#237CE0"/>
<stop offset="0.6552" stop-color="#147CEF"/>
<stop offset="0.7925" stop-color="#0B7CF7"/>
<stop offset="1" stop-color="#087CFA"/>
</linearGradient>
<linearGradient id="paint2_linear" x1="45.1626" y1="31.3754" x2="34.4931" y2="-0.506319" gradientUnits="userSpaceOnUse">
<stop stop-color="#FE315D"/>
<stop offset="0.0784025" stop-color="#CB417E"/>
<stop offset="0.1601" stop-color="#9E4E9B"/>
<stop offset="0.2474" stop-color="#755BB4"/>
<stop offset="0.3392" stop-color="#5365CA"/>
<stop offset="0.4365" stop-color="#386DDB"/>
<stop offset="0.5414" stop-color="#2374E9"/>
<stop offset="0.6576" stop-color="#1478F3"/>
<stop offset="0.794" stop-color="#0B7BF8"/>
<stop offset="1" stop-color="#087CFA"/>
</linearGradient>
<linearGradient id="paint3_linear" x1="7.65743" y1="12.488" x2="39.6598" y2="65.4216" gradientUnits="userSpaceOnUse">
<stop stop-color="#FE315D"/>
<stop offset="0.0402328" stop-color="#F63462"/>
<stop offset="0.1037" stop-color="#DF3A71"/>
<stop offset="0.1667" stop-color="#C24383"/>
<stop offset="0.2912" stop-color="#AD4A91"/>
<stop offset="0.5498" stop-color="#755BB4"/>
<stop offset="0.9175" stop-color="#1D76ED"/>
<stop offset="1" stop-color="#087CFA"/>
</linearGradient>
<clipPath id="clip0">
<rect width="50" height="50" fill="white" transform="translate(0 0.721619)"/>
</clipPath>
</defs>
</svg>
