<svg width="50" height="68" viewBox="0 0 50 68" fill="none" xmlns="http://www.w3.org/2000/svg">
<g clip-path="url(#clip0)">
<path d="M16.1866 52.247C16.1866 52.247 13.5911 53.8268 17.992 54.2781C23.2956 54.955 26.1169 54.8424 31.9848 53.714C31.9848 53.714 33.5646 54.7294 35.7085 55.5194C22.5059 61.1616 5.80486 55.1807 16.1865 52.247H16.1866ZM14.4939 44.912C14.4939 44.912 11.6728 47.0561 16.0737 47.5074C21.8287 48.0718 26.3426 48.1844 34.1287 46.6046C34.1287 46.6046 35.1443 47.7331 36.8369 48.2974C20.926 53.0368 3.09657 48.7487 14.494 44.912H14.4939ZM45.6389 57.7764C45.6389 57.7764 47.5572 59.3561 43.4948 60.5974C35.9343 62.8542 11.7855 63.5314 5.01481 60.5974C2.64512 59.5818 7.1589 58.1148 8.62579 57.8892C10.0928 57.5507 10.8827 57.5507 10.8827 57.5507C8.28736 55.745 -6.38245 61.2744 3.43494 62.8542C30.4048 67.2553 52.6352 60.9359 45.6387 57.7764H45.6389ZM17.4278 37.2387C17.4278 37.2387 5.12779 40.1726 13.0269 41.1881C16.4122 41.6394 23.07 41.5268 29.2765 41.0753C34.3543 40.624 39.4326 39.7211 39.4326 39.7211C39.4326 39.7211 37.6269 40.5111 36.3856 41.3011C23.86 44.5735 -0.17589 43.1066 6.7076 39.7211C12.5755 36.9 17.4277 37.2387 17.4277 37.2387H17.4278ZM39.4326 49.5385C52.0711 42.9937 46.2032 36.6744 42.1409 37.4644C41.1252 37.69 40.6739 37.9157 40.6739 37.9157C40.6739 37.9157 41.0124 37.2387 41.8022 37.0131C49.8141 34.1918 56.1335 45.4761 39.2069 49.8772C39.2069 49.8772 39.3196 49.7644 39.4326 49.5385ZM18.6691 67.3681C30.8563 68.1581 49.4756 66.9166 49.9269 61.1616C49.9269 61.1616 49.0243 63.4185 39.8839 65.1111C29.5022 67.0296 16.638 66.8037 9.07738 65.5624C9.07738 65.5624 10.6571 66.9166 18.6691 67.3681H18.6691Z" fill="#4E7896"/>
<path d="M31.7591 0C31.7591 0 38.7554 7.10917 25.1013 17.8294C14.1553 26.5183 22.6187 31.4835 25.1013 37.1257C18.6691 31.3707 14.0425 26.2926 17.2021 21.5532C21.8289 14.5568 34.5802 11.1716 31.7591 0ZM28.148 32.3863C31.4204 36.1102 27.2454 39.4957 27.2454 39.4957C27.2454 39.4957 35.5959 35.2074 31.7591 29.9037C28.2609 24.8259 25.5526 22.3433 40.2224 13.8799C40.2224 13.8799 17.0893 19.635 28.148 32.3863Z" fill="#F58219"/>
</g>
<defs>
<clipPath id="clip0">
<rect width="50" height="67.6087" fill="white"/>
</clipPath>
</defs>
</svg>
