<svg width="230" height="311" viewBox="0 0 230 311" fill="none" xmlns="http://www.w3.org/2000/svg">
<path d="M74.4582 240.336C74.4582 240.336 62.5191 247.603 82.7634 249.679C107.16 252.793 120.138 252.275 147.13 247.084C147.13 247.084 154.397 251.755 164.259 255.389C103.527 281.343 26.7024 253.831 74.4581 240.336L74.4582 240.336ZM66.6718 206.595C66.6718 206.595 53.6949 216.458 73.939 218.534C100.412 221.13 121.176 221.648 156.992 214.381C156.992 214.381 161.664 219.572 169.45 222.168C96.2597 243.969 14.2443 224.244 66.6723 206.595L66.6718 206.595ZM209.939 265.771C209.939 265.771 218.763 273.038 200.076 278.748C165.298 289.129 54.2132 292.244 23.0682 278.748C12.1676 274.076 32.931 267.328 39.6787 266.29C46.4269 264.733 50.0603 264.733 50.0603 264.733C38.1219 256.427 -29.3592 281.862 15.8008 289.129C139.862 309.374 242.122 280.305 209.938 265.771L209.939 265.771ZM80.1678 171.298C80.1678 171.298 23.5879 184.794 59.9239 189.465C75.4964 191.541 106.122 191.023 134.672 188.946C158.03 186.87 181.39 182.717 181.39 182.717C181.39 182.717 173.084 186.351 167.374 189.985C109.756 205.038 -0.809034 198.29 30.855 182.717C57.8473 169.74 80.1675 171.298 80.1675 171.298L80.1678 171.298ZM181.39 227.877C239.527 197.771 212.535 168.702 193.848 172.336C189.176 173.374 187.1 174.412 187.1 174.412C187.1 174.412 188.657 171.298 192.29 170.26C229.145 157.282 258.214 209.19 180.352 229.435C180.352 229.435 180.87 228.916 181.39 227.877L181.39 227.877ZM85.8781 309.893C141.939 313.527 227.588 307.816 229.664 281.343C229.664 281.343 225.512 291.725 183.466 299.511C135.71 308.336 76.535 307.297 41.756 301.587C41.756 301.587 49.0229 307.816 85.878 309.893L85.8781 309.893Z" fill="#4E7896"/>
<path d="M146.092 0C146.092 0 178.275 32.7022 115.466 82.0153C65.1146 121.984 104.046 144.824 115.466 170.778C85.878 144.305 64.5956 120.946 79.1298 99.1447C100.413 66.9615 159.069 51.3892 146.092 0ZM129.481 148.977C144.534 166.107 125.329 181.68 125.329 181.68C125.329 181.68 163.741 161.954 146.092 137.557C130 114.199 117.542 102.779 185.023 63.8474C185.023 63.8474 78.611 90.3208 129.481 148.977Z" fill="#F58219"/>
</svg>
