<svg width="50" height="56" viewBox="0 0 50 56" fill="none" xmlns="http://www.w3.org/2000/svg">
<g clip-path="url(#clip0)">
<path d="M46.8696 27.273C46.8696 24.4343 44.5685 22.1331 41.7298 22.1331C41.5472 22.1331 41.3671 22.1429 41.1896 22.1614L48.2491 1.34015H18.2483L25.298 22.1435C25.1946 22.1372 25.0907 22.1331 24.9857 22.1331C22.147 22.1331 19.8458 24.4343 19.8458 27.273C19.8458 29.5675 21.3495 31.5101 23.4251 32.171C22.3288 34.0698 20.9495 35.78 19.3835 37.2573C17.254 39.2663 14.8169 40.7896 12.1812 41.7282C9.04288 40.1161 7.56085 36.5306 8.89815 33.387C9.04913 33.0321 9.20323 32.6722 9.35069 32.314C11.6241 31.7833 13.3183 29.745 13.3183 27.3099C13.3183 24.4712 11.0171 22.17 8.17843 22.17C5.33956 22.17 3.03839 24.4712 3.03839 27.3099C3.03839 29.0507 3.9046 30.588 5.22843 31.5179C3.95616 34.4146 2.08624 37.4458 1.50362 40.9591C0.805382 45.1698 1.50148 49.6394 5.14308 52.1634C13.6243 58.0415 22.8306 48.5194 32.5374 46.1257C36.0552 45.2581 39.9167 45.398 43.0161 43.6028C45.3437 42.2548 46.878 40.0208 47.3136 37.5126C47.7437 35.0349 47.1165 32.5679 45.6743 30.5675C46.4202 29.6753 46.8696 28.5269 46.8696 27.273ZM30.1251 27.2911C30.1251 27.2851 30.1257 27.279 30.1257 27.273C30.1257 25.4089 29.1331 23.7765 27.648 22.8755L33.2589 11.5296L38.8796 22.9958C37.4993 23.9173 36.5898 25.4888 36.5898 27.273C36.5898 27.3105 36.5919 27.3474 36.5927 27.3847L30.1251 27.2911Z" fill="#C63D14"/>
<path d="M48.1248 27.273C48.1248 24.1509 45.8754 21.5458 42.9123 20.9894L50 0.0848999H16.4973L23.5957 21.0318C20.7357 21.6683 18.5904 24.2242 18.5904 27.273C18.5904 29.5626 19.8004 31.5738 21.6139 32.7038C20.7416 34.0033 19.7072 35.2261 18.5219 36.3443C16.6422 38.1177 14.5479 39.4626 12.29 40.3474C10.016 38.9189 9.05469 36.2251 10.0531 33.8783L10.1313 33.6947C10.1801 33.5798 10.2291 33.4646 10.2779 33.3494C12.7756 32.4785 14.5734 30.1009 14.5734 27.3099C14.5734 23.7835 11.7045 20.9148 8.17813 20.9148C4.65176 20.9148 1.78301 23.7835 1.78301 27.3099C1.78301 29.0898 2.51446 30.7015 3.6918 31.862C3.47833 32.3171 3.25391 32.7796 3.02325 33.2535C1.94669 35.4646 0.726569 37.9708 0.265046 40.7538C-0.651556 46.281 0.826765 50.6994 4.42774 53.1951C6.6129 54.7095 8.83184 55.3052 11.0649 55.305C15.2697 55.3048 19.5231 53.1925 23.6832 51.1261C26.6795 49.638 29.7775 48.0992 32.8379 47.3445C33.9766 47.0636 35.1483 46.8947 36.3887 46.7158C38.8484 46.3609 41.3922 45.9941 43.6453 44.6892C46.2568 43.1765 48.0447 40.639 48.5502 37.7275C48.9842 35.2281 48.4617 32.7249 47.1879 30.6019C47.7818 29.6316 48.1248 28.4917 48.1248 27.273ZM45.6143 27.273C45.6143 29.415 43.8717 31.1578 41.7295 31.1578C39.5877 31.1578 37.8449 29.415 37.8449 27.273C37.8449 25.131 39.5877 23.3884 41.7295 23.3884C43.8717 23.3884 45.6143 25.131 45.6143 27.273ZM46.4979 2.59545L40.2391 21.055C39.9678 21.1201 39.7033 21.2021 39.4465 21.3007L33.2637 8.68783L27.0629 21.2261C26.7949 21.1337 26.5191 21.0578 26.2363 21.0015L19.999 2.59545H46.4979ZM24.9856 23.3884C27.1275 23.3884 28.8701 25.131 28.8701 27.273C28.8701 29.415 27.1275 31.1578 24.9856 31.1578C22.8438 31.1578 21.101 29.415 21.101 27.273C21.101 25.131 22.8438 23.3884 24.9856 23.3884ZM8.17813 23.4253C10.3203 23.4253 12.0629 25.1679 12.0629 27.3099C12.0629 29.4519 10.3203 31.1947 8.17813 31.1947C6.03634 31.1947 4.29356 29.4519 4.29356 27.3099C4.29356 25.1679 6.03634 23.4253 8.17813 23.4253ZM46.0766 37.298C45.6986 39.4753 44.3537 41.3775 42.3869 42.5165C40.5535 43.5785 38.3565 43.8954 36.0303 44.2308C34.7842 44.4105 33.4955 44.5964 32.2367 44.907C28.9082 45.7277 25.6842 47.329 22.5664 48.8777C16.3272 51.9767 10.9387 54.6529 5.85801 51.1316C2.13634 48.5523 2.30821 43.7798 2.7418 41.1646C3.14356 38.7417 4.22989 36.5103 5.28048 34.3523C5.46231 33.9788 5.63887 33.613 5.81212 33.2495C6.33321 33.4579 6.88731 33.5999 7.46485 33.6644C6.39551 37.1939 8.07735 41.0314 11.6072 42.8449L12.0902 43.0931L12.602 42.9109C15.3926 41.9171 17.9639 40.3222 20.2447 38.1704C21.7191 36.7796 22.9861 35.2408 24.0279 33.5964C24.3404 33.6435 24.6602 33.6683 24.9856 33.6683C28.5119 33.6683 31.3809 30.7995 31.3809 27.273C31.3809 25.3765 30.5502 23.671 29.2346 22.4988L33.2537 14.3714L37.3137 22.6537C36.0955 23.8189 35.3344 25.4581 35.3344 27.273C35.3344 30.7995 38.2031 33.6683 41.7295 33.6683C43.0844 33.6683 44.3412 33.2437 45.3764 32.5222C46.0951 33.9935 46.3629 35.649 46.0766 37.298Z" fill="white"/>
</g>
<defs>
<clipPath id="clip0">
<rect width="50" height="55.2734" fill="white" transform="translate(0 0.0848999)"/>
</clipPath>
</defs>
</svg>
