<svg width="25" height="27" viewBox="0 0 25 27" fill="none" xmlns="http://www.w3.org/2000/svg">
<path fill-rule="evenodd" clip-rule="evenodd" d="M2.3549 2.83334H19.6882C20.8848 2.83334 21.8549 3.80339 21.8549 5V22.3333C21.8549 23.53 20.8848 24.5 19.6882 24.5H2.3549C1.15828 24.5 0.188232 23.53 0.188232 22.3333V5C0.188232 3.80339 1.15828 2.83334 2.3549 2.83334ZM2.35493 5V22.3333H19.6883V5H2.35493ZM12.1049 10.4167C11.544 10.4167 10.9515 10.5881 10.4281 10.9065L9.93826 10.4167H8.85493V18H11.0216V13.6667C11.0216 13.0429 11.665 12.5833 12.1049 12.5833H13.1883C13.6281 12.5833 14.2716 13.0429 14.2716 13.6667V18H16.4383V13.6667C16.4383 11.6594 14.6984 10.4167 13.1883 10.4167H12.1049ZM6.68829 9.33334C7.2866 9.33334 7.77162 8.84831 7.77162 8.25C7.77162 7.65169 7.2866 7.16667 6.68829 7.16667C6.08998 7.16667 5.60495 7.65169 5.60495 8.25C5.60495 8.84831 6.08998 9.33334 6.68829 9.33334ZM5.60495 10.4167V18H7.77162V10.4167H5.60495Z" fill="#ECECEC"/>
</svg>
