<svg width="50" height="59" viewBox="0 0 50 59" fill="none" xmlns="http://www.w3.org/2000/svg">
<g clip-path="url(#clip0)">
<path fill-rule="evenodd" clip-rule="evenodd" d="M25 0.975525V12.1242L9.68468 21.0206L0 15.3899L25 0.975525Z" fill="#A1C535"/>
<path fill-rule="evenodd" clip-rule="evenodd" d="M50 15.3899L40.3153 21.0206L25 12.1242V0.975525L50 15.3899Z" fill="#ADD439"/>
<path fill-rule="evenodd" clip-rule="evenodd" d="M50 44.2188L40.3153 38.5882V21.0206L50 15.39V44.2188Z" fill="#1B6AC6"/>
<path fill-rule="evenodd" clip-rule="evenodd" d="M25 58.6332V47.4845L40.3153 38.5881L50 44.2188L25 58.6332Z" fill="#2E90E8"/>
<path fill-rule="evenodd" clip-rule="evenodd" d="M0 44.2188L9.68468 38.5881L25 47.4845V58.6332L0 44.2188Z" fill="#EA205E"/>
<path fill-rule="evenodd" clip-rule="evenodd" d="M0 15.39L9.68468 21.0206V38.5882L0 44.2188V15.39Z" fill="#A5073E"/>
<path fill-rule="evenodd" clip-rule="evenodd" d="M9.68469 21.0205L25 12.1241L40.3153 21.0205L25 29.8043L9.68469 21.0205Z" fill="#F1F6E2"/>
<path fill-rule="evenodd" clip-rule="evenodd" d="M25 29.8044L40.3153 21.0206V38.5881L25 47.4845V29.8044Z" fill="#CEDBE6"/>
<path fill-rule="evenodd" clip-rule="evenodd" d="M9.68469 21.0206L25 29.8044V47.4845L9.68469 38.5881V21.0206Z" fill="white"/>
</g>
<defs>
<clipPath id="clip0">
<rect width="50" height="57.6577" fill="white" transform="translate(0 0.975525)"/>
</clipPath>
</defs>
</svg>
