<svg width="50" height="32" viewBox="0 0 50 32" fill="none" xmlns="http://www.w3.org/2000/svg">
<g clip-path="url(#clip0)">
<path d="M24.7131 31.1157C24.5481 31.1157 24.3842 31.0724 24.2395 30.9891L22.7321 30.0966C22.5069 29.9707 22.6168 29.9262 22.6911 29.9005C22.9913 29.7954 23.0522 29.7717 23.3726 29.5897C23.4063 29.5705 23.4504 29.5773 23.4849 29.5976L24.6429 30.2848C24.6848 30.3074 24.7441 30.3074 24.7829 30.2848L29.2983 27.6784C29.3401 27.6547 29.3673 27.6061 29.3673 27.5563V22.3458C29.3673 22.2938 29.3401 22.2474 29.2974 22.2214L24.7838 19.6173C24.7419 19.5924 24.6866 19.5924 24.6447 19.6173L20.132 22.2214C20.0883 22.2463 20.0605 22.2949 20.0605 22.3446V27.5552C20.0605 27.6049 20.0876 27.6524 20.1305 27.6761L21.3671 28.3905C22.0384 28.7262 22.4487 28.3306 22.4487 27.9327V22.79C22.4487 22.7165 22.5064 22.66 22.5798 22.66H23.1518C23.223 22.66 23.2817 22.7165 23.2817 22.79V27.935C23.2817 28.8302 22.7935 29.3444 21.9446 29.3444C21.6835 29.3444 21.4778 29.3444 20.9037 29.0619L19.7191 28.3792C19.4264 28.2096 19.2455 27.8932 19.2455 27.5552V22.3446C19.2455 22.0056 19.4264 21.6891 19.7191 21.5218L24.2391 18.9143C24.5251 18.7526 24.9048 18.7526 25.1885 18.9143L29.7028 21.5229C29.9944 21.6913 30.1764 22.0067 30.1764 22.3458V27.5563C30.1764 27.8943 29.9944 28.2096 29.7028 28.3792L25.1885 30.9867C25.0438 31.0704 24.88 31.1133 24.7127 31.1133" fill="#689F63"/>
<path d="M26.1079 27.5252C24.1322 27.5252 23.7179 26.6182 23.7179 25.8576C23.7179 25.7852 23.7762 25.7276 23.8487 25.7276H24.4319C24.4963 25.7276 24.5506 25.7745 24.5608 25.8381C24.6489 26.4324 24.9112 26.7322 26.1058 26.7322C27.0575 26.7322 27.4622 26.5172 27.4622 26.0125C27.4622 25.722 27.3469 25.5062 25.8685 25.3615C24.632 25.2394 23.8679 24.967 23.8679 23.978C23.8679 23.067 24.6365 22.5245 25.9239 22.5245C27.3695 22.5245 28.0861 23.0263 28.1765 24.1046C28.1799 24.1419 28.1663 24.1781 28.1415 24.2052C28.1166 24.2312 28.0816 24.247 28.0454 24.247H27.4588C27.3977 24.247 27.3446 24.2041 27.3322 24.1453C27.1909 23.5203 26.8496 23.3202 25.9216 23.3202C24.8829 23.3202 24.762 23.6819 24.762 23.9532C24.762 24.2821 24.9044 24.3781 26.3059 24.5635C27.6939 24.7477 28.3528 25.0077 28.3528 25.9831C28.3528 26.9665 27.5322 27.5305 26.1013 27.5305L26.1079 27.5252ZM31.6012 22.0046H31.7527C31.877 22.0046 31.9007 21.9176 31.9007 21.8667C31.9007 21.7333 31.8092 21.7333 31.7583 21.7333H31.6024L31.6012 22.0046ZM31.417 21.5773H31.7527C31.868 21.5773 32.094 21.5773 32.094 21.835C32.094 22.0148 31.9787 22.0521 31.9098 22.0747C32.0443 22.0837 32.0533 22.1719 32.0714 22.2962C32.0805 22.3742 32.0951 22.5087 32.1223 22.5539H31.9154C31.9098 22.5087 31.8781 22.26 31.8781 22.2465C31.8646 22.1911 31.8454 22.164 31.7764 22.164H31.6057V22.555H31.417V21.5773ZM31.0135 22.0634C31.0135 22.468 31.3401 22.7958 31.7414 22.7958C32.146 22.7958 32.4727 22.4612 32.4727 22.0634C32.4727 21.6576 32.1415 21.3355 31.7402 21.3355C31.3446 21.3355 31.0123 21.6531 31.0123 22.0622L31.0135 22.0634ZM32.6128 22.0656C32.6128 22.5449 32.2206 22.9359 31.7425 22.9359C31.2678 22.9359 30.8722 22.5494 30.8722 22.0656C30.8722 21.5728 31.2768 21.1953 31.7425 21.1953C32.2116 21.1953 32.6117 21.574 32.6117 22.0656" fill="#689F63"/>
<path fill-rule="evenodd" clip-rule="evenodd" d="M10.7304 10.728C10.7304 10.52 10.6207 10.329 10.4412 10.2256L5.65385 7.47112C5.57304 7.42365 5.4825 7.39878 5.39072 7.39539H5.34122C5.24944 7.39878 5.1589 7.42365 5.07673 7.47112L0.289576 10.2256C0.111219 10.3296 0 10.5206 0 10.7286L0.0105115 18.1477C0.0105115 18.2505 0.0636344 18.3466 0.154056 18.3975C0.242217 18.4517 0.352984 18.4517 0.441145 18.3975L3.28717 16.7676C3.46689 16.6607 3.57652 16.4717 3.57652 16.2658V12.7998C3.57652 12.593 3.68616 12.4019 3.86531 12.2991L5.07696 11.6013C5.16693 11.5493 5.26571 11.5235 5.36631 11.5235C5.46532 11.5235 5.56637 11.549 5.65385 11.6011L6.86494 12.2987C7.0442 12.4016 7.15429 12.5926 7.15429 12.7995V16.2652C7.15429 16.4709 7.26539 16.6608 7.4442 16.7671L10.2884 18.3958C10.3777 18.4489 10.4888 18.4489 10.5778 18.3958C10.6655 18.3449 10.7211 18.2488 10.7211 18.146L10.7304 10.728ZM33.3209 14.5908C33.3209 14.6425 33.2934 14.6903 33.2486 14.7158L31.6042 15.6637C31.5596 15.6893 31.5044 15.6893 31.4599 15.6637L29.8154 14.7158C29.7701 14.6902 29.743 14.6424 29.743 14.5908V12.6924C29.743 12.6407 29.7701 12.593 29.8142 12.567L31.4576 11.6175C31.5028 11.5915 31.5582 11.5915 31.6034 11.6175L33.248 12.567C33.2932 12.593 33.3203 12.6407 33.3203 12.6924L33.3209 14.5908ZM33.7651 0.530005C33.6753 0.480047 33.5662 0.481403 33.4775 0.533056C33.3894 0.585049 33.3349 0.679992 33.3349 0.782847V8.12962C33.3349 8.20196 33.2965 8.26864 33.2339 8.30481C33.1717 8.34098 33.0943 8.34098 33.0315 8.30481L31.8323 7.6141C31.6537 7.5108 31.4338 7.5108 31.2545 7.6141L26.4656 10.378C26.2866 10.4808 26.1762 10.6718 26.1762 10.8775V16.4068C26.1762 16.6137 26.2866 16.8036 26.4656 16.9075L31.2545 19.6733C31.4333 19.7762 31.6535 19.7762 31.8329 19.6733L36.6219 16.9064C36.8004 16.8024 36.9112 16.6125 36.9112 16.4057V2.62542C36.9112 2.41564 36.797 2.2227 36.6139 2.12019L33.7651 0.530005ZM49.7124 12.6425C49.8904 12.5392 49.9999 12.3484 49.9999 12.1427V10.8026C49.9999 10.5964 49.8902 10.4062 49.712 10.3025L44.9535 7.54007C44.7738 7.43608 44.5534 7.43608 44.3737 7.54007L39.5859 10.3036C39.4062 10.4076 39.2965 10.5975 39.2965 10.8043V16.3313C39.2965 16.5393 39.4084 16.7314 39.5881 16.8343L44.3455 19.5458C44.5207 19.6464 44.7354 19.6476 44.9129 19.5492L47.7905 17.9499C47.881 17.899 47.9386 17.8029 47.9386 17.699C47.9386 17.595 47.8832 17.4978 47.7928 17.4469L42.9756 14.6823C42.8851 14.6314 42.8298 14.5353 42.8298 14.4325V12.6986C42.8298 12.5951 42.884 12.4997 42.9744 12.4482L44.4732 11.5835C44.5625 11.5315 44.6721 11.5315 44.7614 11.5835L46.2613 12.4482C46.3506 12.499 46.4059 12.5951 46.4059 12.698V14.0611C46.4059 14.1639 46.4613 14.26 46.5506 14.312C46.6399 14.3628 46.7507 14.3628 46.84 14.3109L49.7124 12.6425Z" fill="#ECECEC"/>
<path fill-rule="evenodd" clip-rule="evenodd" d="M44.5936 12.3836C44.6275 12.3636 44.67 12.3636 44.7044 12.3836L45.6233 12.9137C45.6576 12.9336 45.6786 12.9702 45.6786 13.0098V14.0711C45.6786 14.1107 45.6576 14.1473 45.6233 14.1672L44.7044 14.6973C44.67 14.7173 44.6275 14.7173 44.5936 14.6973L43.6753 14.1672C43.6402 14.1473 43.6187 14.1107 43.6187 14.0711V13.0098C43.6187 12.9702 43.6391 12.9336 43.6741 12.9137L44.5936 12.3836Z" fill="#689F63"/>
<path d="M28.6024 9.84921L15.1844 3.27216L8.30441 17.3072L21.7221 23.8846L28.6024 9.84921Z" fill="url(#paint0_linear)"/>
<path d="M7.43317 11.7945L16.9077 24.6178L29.4379 15.3602L19.9628 2.53723L7.43317 11.7945Z" fill="url(#paint1_linear)"/>
<path d="M13.4179 7.49158V19.6341H23.7806V7.49158H13.4179Z" fill="url(#paint2_linear)"/>
</g>
<defs>
<linearGradient id="paint0_linear" x1="21.8894" y1="6.55034" x2="15.0099" y2="20.5845" gradientUnits="userSpaceOnUse">
<stop offset="0.3" stop-color="#3E863D"/>
<stop offset="0.5" stop-color="#55934F"/>
<stop offset="0.8" stop-color="#5AAD45"/>
</linearGradient>
<linearGradient id="paint1_linear" x1="12.2272" y1="18.2796" x2="24.7579" y2="9.02096" gradientUnits="userSpaceOnUse">
<stop offset="0.57" stop-color="#3E863D"/>
<stop offset="0.72" stop-color="#619857"/>
<stop offset="1" stop-color="#76AC64"/>
</linearGradient>
<linearGradient id="paint2_linear" x1="13.4214" y1="13.5632" x2="23.7826" y2="13.5632" gradientUnits="userSpaceOnUse">
<stop offset="0.16" stop-color="#6BBF47"/>
<stop offset="0.38" stop-color="#79B461"/>
<stop offset="0.47" stop-color="#75AC64"/>
<stop offset="0.7" stop-color="#659E5A"/>
<stop offset="0.9" stop-color="#3E863D"/>
</linearGradient>
<clipPath id="clip0">
<rect width="50" height="30.6224" fill="white" transform="translate(0 0.493164)"/>
</clipPath>
</defs>
</svg>
