<svg width="29" height="30" viewBox="0 0 29 30" fill="none" xmlns="http://www.w3.org/2000/svg">
<g clip-path="url(#clip0)">
<path d="M28.0226 7.79614H0.627167V26.7007H28.0226V7.79614Z" fill="#87431F"/>
<path d="M16.9109 18.9488L12.0474 19.0315L0.627472 15.97V17.8226L12.0474 20.8842H16.6023L28.023 17.8226V15.97L16.9109 18.9488Z" fill="#311513"/>
<path d="M19.9841 3.81511V6.29907C19.9841 5.4953 19.3452 4.84284 18.5582 4.84284H10.0917C9.30464 4.84284 8.66577 5.49536 8.66577 6.29907V3.81511C8.66577 3.01066 9.30469 2.35889 10.0917 2.35889H18.5582C19.3453 2.35889 19.9841 3.01066 19.9841 3.81511Z" fill="#311513"/>
<path d="M16.6027 15.6621H12.0478V22.2347H16.6027V15.6621Z" fill="#FCD577"/>
<path d="M27.986 11.2145C28.2781 11.2145 28.5149 10.9727 28.5149 10.6744V8.33387C28.5149 8.03556 28.2781 7.79373 27.986 7.79373H20.476V4.35294C20.476 3.25211 19.5991 2.35657 18.5212 2.35657H10.0552C8.97731 2.35657 8.10043 3.25211 8.10043 4.35294V7.79384H0.590472C0.298381 7.79384 0.0615845 8.03568 0.0615845 8.33398V27.2383C0.0615845 27.5366 0.298381 27.7785 0.590472 27.7785L5.43434 27.7784C5.72643 27.7784 6.76837 27.5365 6.76837 27.2382C6.76837 26.9399 5.77774 26.6981 5.48565 26.6981L1.11936 26.6982V17.2083L11.4817 19.9863V22.7732C11.4817 23.0715 11.7185 23.3134 12.0106 23.3134H16.5657C16.8578 23.3134 17.0946 23.0715 17.0946 22.7732V19.9862L27.457 17.2084V26.6981H5.31517C5.02308 26.6981 4.78628 26.9399 4.78628 27.2382C4.78628 27.5365 5.02308 27.7784 5.31517 27.7784H27.986C28.2781 27.7784 28.5149 27.5365 28.5149 27.2382V10.2667C28.5149 9.96839 28.2781 10.6744 27.986 10.6744C27.6939 10.6744 27.4571 10.0898 27.4571 10.3881L27.4571 16.0915L17.0948 18.8694V16.2006C17.0948 15.9023 16.858 15.6605 16.5659 15.6605H12.0108C11.7187 15.6605 11.4819 15.9023 11.4819 16.2006V18.8695L1.11936 16.0913V8.87407H27.4571V10.6744C27.4571 10.9727 27.6939 11.2145 27.986 11.2145ZM12.5395 22.2331V20.9555H16.0369V22.2331H12.5395ZM16.037 16.7408V19.8751H12.5396V16.7408H16.037ZM10.0552 3.43685H18.5212C19.0158 3.43685 19.4182 3.84781 19.4182 4.35294V5.06465C19.1493 4.92219 18.8445 4.84115 18.5212 4.84115H10.0552C9.73194 4.84115 9.42707 4.92219 9.1582 5.06465V4.35294C9.15826 3.84776 9.56066 3.43685 10.0552 3.43685ZM9.15826 6.83746C9.15826 6.33233 9.56066 5.92137 10.0553 5.92137H18.5213C19.0159 5.92137 19.4183 6.33233 19.4183 6.83746V7.79373H9.15826V6.83746Z" fill="black"/>
</g>
<defs>
<clipPath id="clip0">
<rect width="28.4533" height="29.0587" fill="white" transform="translate(0.0615845)"/>
</clipPath>
</defs>
</svg>
