<svg width="325" height="79" viewBox="0 0 325 79" fill="none" xmlns="http://www.w3.org/2000/svg">
<path d="M67.6331 20.1172V33.5703H74.3596C75.2815 33.5703 76.1487 33.3984 76.9612 33.0547C77.7737 32.6953 78.4846 32.2109 79.094 31.6016C79.7034 30.9922 80.1799 30.2812 80.5237 29.4688C80.8831 28.6406 81.0627 27.7656 81.0627 26.8438C81.0627 25.9219 80.8831 25.0547 80.5237 24.2422C80.1799 23.4141 79.7034 22.6953 79.094 22.0859C78.4846 21.4766 77.7737 21 76.9612 20.6562C76.1487 20.2969 75.2815 20.1172 74.3596 20.1172H67.6331ZM67.6331 47H60.9065V13.3906H74.3596C75.594 13.3906 76.7815 13.5547 77.9221 13.8828C79.0627 14.1953 80.1252 14.6484 81.1096 15.2422C82.1096 15.8203 83.0159 16.5234 83.8284 17.3516C84.6565 18.1641 85.3596 19.0703 85.9377 20.0703C86.5315 21.0703 86.9846 22.1406 87.2971 23.2812C87.6252 24.4219 87.7893 25.6094 87.7893 26.8438C87.7893 28.6875 87.4377 30.4297 86.7346 32.0703C86.0315 33.6953 85.0706 35.1172 83.8518 36.3359C82.6331 37.5547 81.2034 38.5156 79.5627 39.2188C77.9377 39.9219 76.2034 40.2734 74.3596 40.2734H67.6331V47Z" fill="white"/>
<path d="M124.68 30.3359C124.68 31.9297 124.469 33.4688 124.047 34.9531C123.641 36.4219 123.063 37.8047 122.313 39.1016C121.563 40.3828 120.656 41.5547 119.594 42.6172C118.531 43.6797 117.36 44.5938 116.078 45.3594C114.797 46.1094 113.414 46.6875 111.93 47.0938C110.446 47.5156 108.906 47.7266 107.313 47.7266C105.719 47.7266 104.18 47.5156 102.696 47.0938C101.227 46.6875 99.844 46.1094 98.5471 45.3594C97.2659 44.5938 96.094 43.6797 95.0315 42.6172C93.969 41.5547 93.0549 40.3828 92.2893 39.1016C91.5393 37.8047 90.9534 36.4219 90.5315 34.9531C90.1252 33.4688 89.9221 31.9297 89.9221 30.3359C89.9221 28.7422 90.1252 27.2031 90.5315 25.7188C90.9534 24.2344 91.5393 22.8516 92.2893 21.5703C93.0549 20.2891 93.969 19.1172 95.0315 18.0547C96.094 16.9922 97.2659 16.0859 98.5471 15.3359C99.844 14.5859 101.227 14.0078 102.696 13.6016C104.18 13.1797 105.719 12.9688 107.313 12.9688C108.906 12.9688 110.446 13.1797 111.93 13.6016C113.414 14.0078 114.797 14.5859 116.078 15.3359C117.36 16.0859 118.531 16.9922 119.594 18.0547C120.656 19.1172 121.563 20.2891 122.313 21.5703C123.063 22.8516 123.641 24.2344 124.047 25.7188C124.469 27.2031 124.68 28.7422 124.68 30.3359ZM118 30.3359C118 28.8672 117.719 27.4844 117.156 26.1875C116.594 24.875 115.828 23.7422 114.86 22.7891C113.906 21.8203 112.774 21.0547 111.461 20.4922C110.164 19.9297 108.781 19.6484 107.313 19.6484C105.828 19.6484 104.438 19.9297 103.141 20.4922C101.844 21.0547 100.711 21.8203 99.7424 22.7891C98.7737 23.7422 98.0081 24.875 97.4456 26.1875C96.8831 27.4844 96.6018 28.8672 96.6018 30.3359C96.6018 31.8047 96.8831 33.1875 97.4456 34.4844C98.0081 35.7656 98.7737 36.8906 99.7424 37.8594C100.711 38.8281 101.844 39.5938 103.141 40.1562C104.438 40.7188 105.828 41 107.313 41C108.781 41 110.164 40.7188 111.461 40.1562C112.774 39.5938 113.906 38.8281 114.86 37.8594C115.828 36.8906 116.594 35.7656 117.156 34.4844C117.719 33.1875 118 31.8047 118 30.3359Z" fill="white"/>
<path d="M135.836 20.1172V33.5703H142.563C143.485 33.5703 144.352 33.3984 145.164 33.0547C145.977 32.6953 146.688 32.2109 147.297 31.6016C147.906 30.9922 148.383 30.2812 148.727 29.4688C149.086 28.6406 149.266 27.7656 149.266 26.8438C149.266 25.9219 149.086 25.0547 148.727 24.2422C148.383 23.4141 147.906 22.6953 147.297 22.0859C146.688 21.4766 145.977 21 145.164 20.6562C144.352 20.2969 143.485 20.1172 142.563 20.1172H135.836ZM135.836 47H129.11V13.3906H142.563C143.797 13.3906 144.985 13.5547 146.125 13.8828C147.266 14.1953 148.328 14.6484 149.313 15.2422C150.313 15.8203 151.219 16.5234 152.031 17.3516C152.86 18.1641 153.563 19.0703 154.141 20.0703C154.735 21.0703 155.188 22.1406 155.5 23.2812C155.828 24.4219 155.992 25.6094 155.992 26.8438C155.992 28 155.844 29.125 155.547 30.2188C155.266 31.3125 154.852 32.3516 154.305 33.3359C153.774 34.3203 153.117 35.2266 152.336 36.0547C151.555 36.8828 150.68 37.6016 149.711 38.2109L153.438 47H146.289L143.36 40.2266L135.836 40.2734V47Z" fill="white"/>
<path d="M173.922 47H167.219V20.1172H157.117V13.3906H184V20.1172H173.922V47Z" fill="white"/>
<path d="M194.289 47H187.563V13.3906H211.094V20.1172H194.289V26.8438H204.367V33.5703H194.289V47Z" fill="white"/>
<path d="M246.742 30.3359C246.742 31.9297 246.531 33.4688 246.11 34.9531C245.703 36.4219 245.125 37.8047 244.375 39.1016C243.625 40.3828 242.719 41.5547 241.656 42.6172C240.594 43.6797 239.422 44.5938 238.141 45.3594C236.86 46.1094 235.477 46.6875 233.992 47.0938C232.508 47.5156 230.969 47.7266 229.375 47.7266C227.781 47.7266 226.242 47.5156 224.758 47.0938C223.289 46.6875 221.906 46.1094 220.61 45.3594C219.328 44.5938 218.156 43.6797 217.094 42.6172C216.031 41.5547 215.117 40.3828 214.352 39.1016C213.602 37.8047 213.016 36.4219 212.594 34.9531C212.188 33.4688 211.985 31.9297 211.985 30.3359C211.985 28.7422 212.188 27.2031 212.594 25.7188C213.016 24.2344 213.602 22.8516 214.352 21.5703C215.117 20.2891 216.031 19.1172 217.094 18.0547C218.156 16.9922 219.328 16.0859 220.61 15.3359C221.906 14.5859 223.289 14.0078 224.758 13.6016C226.242 13.1797 227.781 12.9688 229.375 12.9688C230.969 12.9688 232.508 13.1797 233.992 13.6016C235.477 14.0078 236.86 14.5859 238.141 15.3359C239.422 16.0859 240.594 16.9922 241.656 18.0547C242.719 19.1172 243.625 20.2891 244.375 21.5703C245.125 22.8516 245.703 24.2344 246.11 25.7188C246.531 27.2031 246.742 28.7422 246.742 30.3359ZM240.063 30.3359C240.063 28.8672 239.781 27.4844 239.219 26.1875C238.656 24.875 237.891 23.7422 236.922 22.7891C235.969 21.8203 234.836 21.0547 233.524 20.4922C232.227 19.9297 230.844 19.6484 229.375 19.6484C227.891 19.6484 226.5 19.9297 225.203 20.4922C223.906 21.0547 222.774 21.8203 221.805 22.7891C220.836 23.7422 220.071 24.875 219.508 26.1875C218.946 27.4844 218.664 28.8672 218.664 30.3359C218.664 31.8047 218.946 33.1875 219.508 34.4844C220.071 35.7656 220.836 36.8906 221.805 37.8594C222.774 38.8281 223.906 39.5938 225.203 40.1562C226.5 40.7188 227.891 41 229.375 41C230.844 41 232.227 40.7188 233.524 40.1562C234.836 39.5938 235.969 38.8281 236.922 37.8594C237.891 36.8906 238.656 35.7656 239.219 34.4844C239.781 33.1875 240.063 31.8047 240.063 30.3359Z" fill="white"/>
<path d="M274.703 47H251.172V13.3906H257.899V40.2734H274.703V47Z" fill="white"/>
<path d="M284.946 47H278.219V13.3906H284.946V47Z" fill="white"/>
<path d="M324.133 30.3359C324.133 31.9297 323.922 33.4688 323.5 34.9531C323.094 36.4219 322.516 37.8047 321.766 39.1016C321.016 40.3828 320.11 41.5547 319.047 42.6172C317.985 43.6797 316.813 44.5938 315.531 45.3594C314.25 46.1094 312.867 46.6875 311.383 47.0938C309.899 47.5156 308.36 47.7266 306.766 47.7266C305.172 47.7266 303.633 47.5156 302.149 47.0938C300.68 46.6875 299.297 46.1094 298 45.3594C296.719 44.5938 295.547 43.6797 294.485 42.6172C293.422 41.5547 292.508 40.3828 291.742 39.1016C290.992 37.8047 290.406 36.4219 289.985 34.9531C289.578 33.4688 289.375 31.9297 289.375 30.3359C289.375 28.7422 289.578 27.2031 289.985 25.7188C290.406 24.2344 290.992 22.8516 291.742 21.5703C292.508 20.2891 293.422 19.1172 294.485 18.0547C295.547 16.9922 296.719 16.0859 298 15.3359C299.297 14.5859 300.68 14.0078 302.149 13.6016C303.633 13.1797 305.172 12.9688 306.766 12.9688C308.36 12.9688 309.899 13.1797 311.383 13.6016C312.867 14.0078 314.25 14.5859 315.531 15.3359C316.813 16.0859 317.985 16.9922 319.047 18.0547C320.11 19.1172 321.016 20.2891 321.766 21.5703C322.516 22.8516 323.094 24.2344 323.5 25.7188C323.922 27.2031 324.133 28.7422 324.133 30.3359ZM317.453 30.3359C317.453 28.8672 317.172 27.4844 316.61 26.1875C316.047 24.875 315.281 23.7422 314.313 22.7891C313.36 21.8203 312.227 21.0547 310.914 20.4922C309.617 19.9297 308.235 19.6484 306.766 19.6484C305.281 19.6484 303.891 19.9297 302.594 20.4922C301.297 21.0547 300.164 21.8203 299.196 22.7891C298.227 23.7422 297.461 24.875 296.899 26.1875C296.336 27.4844 296.055 28.8672 296.055 30.3359C296.055 31.8047 296.336 33.1875 296.899 34.4844C297.461 35.7656 298.227 36.8906 299.196 37.8594C300.164 38.8281 301.297 39.5938 302.594 40.1562C303.891 40.7188 305.281 41 306.766 41C308.235 41 309.617 40.7188 310.914 40.1562C312.227 39.5938 313.36 38.8281 314.313 37.8594C315.281 36.8906 316.047 35.7656 316.61 34.4844C317.172 33.1875 317.453 31.8047 317.453 30.3359Z" fill="white"/>
<path d="M5.99713 64.5358V71.2624H9.36041C9.82135 71.2624 10.2549 71.1765 10.6612 71.0046C11.0674 70.8249 11.4229 70.5827 11.7276 70.278C12.0323 69.9733 12.2706 69.6179 12.4424 69.2116C12.6221 68.7975 12.712 68.36 12.712 67.8991C12.712 67.4382 12.6221 67.0046 12.4424 66.5983C12.2706 66.1843 12.0323 65.8249 11.7276 65.5202C11.4229 65.2155 11.0674 64.9772 10.6612 64.8054C10.2549 64.6257 9.82135 64.5358 9.36041 64.5358H5.99713ZM5.99713 77.9772H2.63385V61.1725H9.36041C9.9776 61.1725 10.5714 61.2546 11.1417 61.4186C11.712 61.5749 12.2432 61.8015 12.7354 62.0983C13.2354 62.3874 13.6885 62.739 14.0948 63.153C14.5089 63.5593 14.8604 64.0124 15.1495 64.5124C15.4464 65.0124 15.6729 65.5475 15.8292 66.1179C15.9932 66.6882 16.0753 67.2819 16.0753 67.8991C16.0753 68.821 15.8995 69.6921 15.5479 70.5124C15.1964 71.3249 14.7159 72.0358 14.1065 72.6452C13.4971 73.2546 12.7823 73.735 11.962 74.0866C11.1495 74.4382 10.2823 74.614 9.36041 74.614H5.99713V77.9772Z" fill="white"/>
<path d="M22.7081 74.9069C22.8331 74.946 22.9581 74.9733 23.0831 74.989C23.2081 74.9968 23.3331 75.0007 23.4581 75.0007C23.7706 75.0007 24.0714 74.9577 24.3604 74.8718C24.6495 74.7858 24.919 74.6647 25.169 74.5085C25.4268 74.3444 25.6534 74.1491 25.8487 73.9225C26.0518 73.6882 26.2159 73.4304 26.3409 73.1491L28.6846 75.5046C28.3878 75.9265 28.044 76.3054 27.6534 76.6413C27.2706 76.9772 26.8526 77.2624 26.3995 77.4968C25.9542 77.7311 25.4815 77.9069 24.9815 78.0241C24.4893 78.1491 23.9815 78.2116 23.4581 78.2116C22.5753 78.2116 21.7432 78.0475 20.962 77.7194C20.1885 77.3913 19.5089 76.9343 18.9229 76.3483C18.3448 75.7624 17.8878 75.0671 17.5518 74.2624C17.2159 73.4499 17.0479 72.5593 17.0479 71.5905C17.0479 70.5983 17.2159 69.6921 17.5518 68.8718C17.8878 68.0515 18.3448 67.3522 18.9229 66.7741C19.5089 66.196 20.1885 65.7468 20.962 65.4265C21.7432 65.1061 22.5753 64.946 23.4581 64.946C23.9815 64.946 24.4932 65.0085 24.9932 65.1335C25.4932 65.2585 25.9659 65.4382 26.4112 65.6725C26.8643 65.9069 27.2862 66.196 27.6768 66.5397C28.0674 66.8757 28.4112 67.2546 28.7081 67.6765L22.7081 74.9069ZM24.3487 68.3093C24.2003 68.2546 24.0518 68.2194 23.9034 68.2038C23.7628 68.1882 23.6143 68.1804 23.4581 68.1804C23.0206 68.1804 22.6065 68.2624 22.2159 68.4265C21.8331 68.5827 21.4971 68.8093 21.2081 69.1061C20.9268 69.403 20.7042 69.7624 20.5401 70.1843C20.376 70.5983 20.294 71.0671 20.294 71.5905C20.294 71.7077 20.2979 71.8405 20.3057 71.989C20.3214 72.1374 20.3409 72.2897 20.3643 72.446C20.3956 72.5944 20.4307 72.739 20.4698 72.8796C20.5089 73.0202 20.5596 73.1452 20.6221 73.2546L24.3487 68.3093Z" fill="white"/>
<path d="M33.5479 77.9772H30.3253V60.4343H33.5479V77.9772Z" fill="white"/>
<path d="M39.2198 77.9772H35.9971V60.4343H39.2198V77.9772Z" fill="white"/>
<path d="M46.6612 74.9069C46.7862 74.946 46.9112 74.9733 47.0362 74.989C47.1612 74.9968 47.2862 75.0007 47.4112 75.0007C47.7237 75.0007 48.0245 74.9577 48.3135 74.8718C48.6026 74.7858 48.8721 74.6647 49.1221 74.5085C49.3799 74.3444 49.6065 74.1491 49.8018 73.9225C50.0049 73.6882 50.169 73.4304 50.294 73.1491L52.6378 75.5046C52.3409 75.9265 51.9971 76.3054 51.6065 76.6413C51.2237 76.9772 50.8057 77.2624 50.3526 77.4968C49.9073 77.7311 49.4346 77.9069 48.9346 78.0241C48.4424 78.1491 47.9346 78.2116 47.4112 78.2116C46.5284 78.2116 45.6964 78.0475 44.9151 77.7194C44.1417 77.3913 43.462 76.9343 42.876 76.3483C42.2979 75.7624 41.8409 75.0671 41.5049 74.2624C41.169 73.4499 41.001 72.5593 41.001 71.5905C41.001 70.5983 41.169 69.6921 41.5049 68.8718C41.8409 68.0515 42.2979 67.3522 42.876 66.7741C43.462 66.196 44.1417 65.7468 44.9151 65.4265C45.6964 65.1061 46.5284 64.946 47.4112 64.946C47.9346 64.946 48.4464 65.0085 48.9464 65.1335C49.4464 65.2585 49.919 65.4382 50.3643 65.6725C50.8174 65.9069 51.2393 66.196 51.6299 66.5397C52.0206 66.8757 52.3643 67.2546 52.6612 67.6765L46.6612 74.9069ZM48.3018 68.3093C48.1534 68.2546 48.0049 68.2194 47.8565 68.2038C47.7159 68.1882 47.5674 68.1804 47.4112 68.1804C46.9737 68.1804 46.5596 68.2624 46.169 68.4265C45.7862 68.5827 45.4503 68.8093 45.1612 69.1061C44.8799 69.403 44.6573 69.7624 44.4932 70.1843C44.3292 70.5983 44.2471 71.0671 44.2471 71.5905C44.2471 71.7077 44.251 71.8405 44.2589 71.989C44.2745 72.1374 44.294 72.2897 44.3174 72.446C44.3487 72.5944 44.3839 72.739 44.4229 72.8796C44.462 73.0202 44.5128 73.1452 44.5753 73.2546L48.3018 68.3093Z" fill="white"/>
<path d="M73.1104 77.9772H61.3448V61.1725H64.7081V74.614H73.1104V77.9772Z" fill="white"/>
<path d="M78.3018 62.0163C78.3018 62.3132 78.2432 62.5905 78.126 62.8483C78.0167 63.1061 77.8643 63.3327 77.669 63.528C77.4737 63.7155 77.2432 63.8679 76.9776 63.985C76.7198 64.0944 76.4424 64.1491 76.1456 64.1491C75.8487 64.1491 75.5674 64.0944 75.3018 63.985C75.044 63.8679 74.8174 63.7155 74.6221 63.528C74.4346 63.3327 74.2823 63.1061 74.1651 62.8483C74.0557 62.5905 74.001 62.3132 74.001 62.0163C74.001 61.7272 74.0557 61.4538 74.1651 61.196C74.2823 60.9304 74.4346 60.7038 74.6221 60.5163C74.8174 60.321 75.044 60.1686 75.3018 60.0593C75.5674 59.9421 75.8487 59.8835 76.1456 59.8835C76.4424 59.8835 76.7198 59.9421 76.9776 60.0593C77.2432 60.1686 77.4737 60.321 77.669 60.5163C77.8643 60.7038 78.0167 60.9304 78.126 61.196C78.2432 61.4538 78.3018 61.7272 78.3018 62.0163ZM77.751 77.9772H74.5284V65.4265H77.751V77.9772Z" fill="white"/>
<path d="M83.3995 77.9772H80.2003V65.4265H80.9737L82.0284 66.6452C82.544 66.1765 83.126 65.8171 83.7745 65.5671C84.4307 65.3093 85.1143 65.1804 85.8253 65.1804C86.5909 65.1804 87.3135 65.3288 87.9932 65.6257C88.6729 65.9147 89.2667 66.3171 89.7745 66.8327C90.2823 67.3405 90.6807 67.9382 90.9698 68.6257C91.2667 69.3054 91.4151 70.0319 91.4151 70.8054V77.9772H88.2159V70.8054C88.2159 70.4772 88.1534 70.1686 88.0284 69.8796C87.9034 69.5827 87.7315 69.3249 87.5128 69.1061C87.294 68.8874 87.0401 68.7155 86.751 68.5905C86.462 68.4655 86.1534 68.403 85.8253 68.403C85.4893 68.403 85.1729 68.4655 84.876 68.5905C84.5792 68.7155 84.3214 68.8874 84.1026 69.1061C83.8839 69.3249 83.712 69.5827 83.587 69.8796C83.462 70.1686 83.3995 70.4772 83.3995 70.8054V77.9772Z" fill="white"/>
<path d="M105.829 77.9772H105.056L103.814 76.2546C103.509 76.528 103.185 76.7858 102.841 77.028C102.505 77.2624 102.149 77.4694 101.774 77.6491C101.399 77.821 101.013 77.9577 100.614 78.0593C100.224 78.1608 99.8253 78.2116 99.419 78.2116C98.5362 78.2116 97.7042 78.0475 96.9229 77.7194C96.1495 77.3835 95.4698 76.9225 94.8839 76.3366C94.3057 75.7429 93.8487 75.0436 93.5128 74.239C93.1768 73.4265 93.0089 72.5436 93.0089 71.5905C93.0089 70.6452 93.1768 69.7663 93.5128 68.9538C93.8487 68.1413 94.3057 67.4382 94.8839 66.8444C95.4698 66.2507 96.1495 65.7858 96.9229 65.4499C97.7042 65.114 98.5362 64.946 99.419 64.946C99.7003 64.946 99.9893 64.9694 100.286 65.0163C100.591 65.0632 100.884 65.1413 101.165 65.2507C101.454 65.3522 101.724 65.489 101.974 65.6608C102.224 65.8327 102.435 66.0436 102.607 66.2936V60.4343H105.829V77.9772ZM102.607 71.5905C102.607 71.153 102.521 70.7311 102.349 70.3249C102.185 69.9108 101.958 69.5475 101.669 69.235C101.38 68.9147 101.04 68.6608 100.649 68.4733C100.267 68.278 99.8565 68.1804 99.419 68.1804C98.9815 68.1804 98.5674 68.2585 98.1768 68.4147C97.794 68.571 97.4581 68.7975 97.169 69.0944C96.8878 69.3835 96.6651 69.739 96.501 70.1608C96.337 70.5827 96.2549 71.0593 96.2549 71.5905C96.2549 72.0515 96.337 72.489 96.501 72.903C96.6651 73.3171 96.8878 73.6804 97.169 73.9929C97.4581 74.3054 97.794 74.5515 98.1768 74.7311C98.5674 74.9108 98.9815 75.0007 99.419 75.0007C99.8565 75.0007 100.267 74.9069 100.649 74.7194C101.04 74.5241 101.38 74.2702 101.669 73.9577C101.958 73.6374 102.185 73.2741 102.349 72.8679C102.521 72.4538 102.607 72.028 102.607 71.5905Z" fill="white"/>
<path d="M111.478 77.9772H108.278V65.4265H109.052L110.107 66.9147C110.622 66.446 111.208 66.0866 111.864 65.8366C112.521 65.5788 113.2 65.4499 113.903 65.4499H116.728V68.6374H113.903C113.567 68.6374 113.251 68.6999 112.954 68.8249C112.657 68.9499 112.399 69.1218 112.181 69.3405C111.962 69.5593 111.79 69.8171 111.665 70.114C111.54 70.4108 111.478 70.7272 111.478 71.0632V77.9772Z" fill="white"/>
<path d="M130.11 71.5905C130.11 72.528 129.942 73.403 129.607 74.2155C129.271 75.0202 128.814 75.7194 128.235 76.3132C127.657 76.8991 126.978 77.364 126.196 77.7077C125.423 78.0436 124.591 78.2116 123.7 78.2116C122.817 78.2116 121.985 78.0436 121.204 77.7077C120.431 77.364 119.751 76.8991 119.165 76.3132C118.587 75.7194 118.13 75.0202 117.794 74.2155C117.458 73.403 117.29 72.528 117.29 71.5905C117.29 70.6374 117.458 69.7546 117.794 68.9421C118.13 68.1296 118.587 67.4304 119.165 66.8444C119.751 66.2507 120.431 65.7858 121.204 65.4499C121.985 65.114 122.817 64.946 123.7 64.946C124.591 64.946 125.423 65.1061 126.196 65.4265C126.978 65.739 127.657 66.1882 128.235 66.7741C128.814 67.3522 129.271 68.0515 129.607 68.8718C129.942 69.6843 130.11 70.5905 130.11 71.5905ZM126.888 71.5905C126.888 71.0749 126.802 70.61 126.63 70.196C126.466 69.7741 126.239 69.4147 125.95 69.1179C125.661 68.8132 125.321 68.5827 124.931 68.4265C124.548 68.2624 124.138 68.1804 123.7 68.1804C123.263 68.1804 122.849 68.2624 122.458 68.4265C122.075 68.5827 121.739 68.8132 121.45 69.1179C121.169 69.4147 120.946 69.7741 120.782 70.196C120.618 70.61 120.536 71.0749 120.536 71.5905C120.536 72.0749 120.618 72.5241 120.782 72.9382C120.946 73.3522 121.169 73.7116 121.45 74.0163C121.739 74.321 122.075 74.5632 122.458 74.7429C122.849 74.9147 123.263 75.0007 123.7 75.0007C124.138 75.0007 124.548 74.9186 124.931 74.7546C125.321 74.5905 125.661 74.36 125.95 74.0632C126.239 73.7663 126.466 73.4069 126.63 72.985C126.802 72.5632 126.888 72.0983 126.888 71.5905Z" fill="white"/>
<path d="M138.079 77.9772C137.306 77.9772 136.579 77.8327 135.899 77.5436C135.22 77.2468 134.622 76.8444 134.107 76.3366C133.599 75.821 133.196 75.2233 132.899 74.5436C132.61 73.864 132.466 73.1374 132.466 72.364V68.6374H130.907V65.4499H132.466V60.4343H135.653V65.4499H140.505V68.6374H135.653V72.364C135.653 72.6999 135.716 73.0163 135.841 73.3132C135.966 73.6022 136.138 73.8561 136.357 74.0749C136.575 74.2936 136.833 74.4694 137.13 74.6022C137.427 74.7272 137.743 74.7897 138.079 74.7897H140.505V77.9772H138.079Z" fill="white"/>
<path d="M145.509 77.9772H142.31V60.4343H145.509V65.9772C145.892 65.6882 146.286 65.485 146.692 65.3679C147.099 65.2429 147.513 65.1804 147.935 65.1804C148.708 65.1804 149.435 65.3288 150.114 65.6257C150.794 65.9147 151.384 66.3171 151.884 66.8327C152.392 67.3405 152.79 67.9382 153.079 68.6257C153.376 69.3054 153.524 70.0319 153.524 70.8054V77.9772H150.302V70.8054H150.325C150.325 70.4772 150.263 70.1686 150.138 69.8796C150.013 69.5827 149.841 69.3249 149.622 69.1061C149.403 68.8874 149.149 68.7155 148.86 68.5905C148.571 68.4655 148.263 68.403 147.935 68.403C147.599 68.403 147.282 68.4655 146.985 68.5905C146.689 68.7155 146.431 68.8874 146.212 69.1061C145.993 69.3249 145.821 69.5827 145.696 69.8796C145.571 70.1686 145.509 70.4772 145.509 70.8054V77.9772Z" fill="white"/>
<circle cx="106.09" cy="28.9283" r="14" fill="#333"/>
<circle cx="228.656" cy="32.1029" r="14" fill="#333"/>
<circle cx="305.628" cy="32.1029" r="14" fill="#333"/>
<path d="M53.0657 14.4876H1.07343V49.618H53.0657V14.4876Z" fill="#87431F"/>
<path d="M31.9775 35.2126L22.7473 35.3663L1.07397 29.677V33.1197L22.7473 38.8091H31.3917L53.0664 33.1197V29.677L31.9775 35.2126Z" fill="#311513"/>
<path d="M37.8099 7.0896V11.7055C37.8099 10.2119 36.5973 8.99943 35.1038 8.99943H19.0355C17.5419 8.99943 16.3294 10.212 16.3294 11.7055V7.0896C16.3294 5.59469 17.542 4.38348 19.0355 4.38348H35.1038C36.5974 4.38348 37.8099 5.59469 37.8099 7.0896Z" fill="#311513"/>
<path d="M31.3925 29.105H22.748V41.3189H31.3925V29.105Z" fill="#FCD577"/>
<path d="M52.9963 20.84C53.5506 20.84 54 20.3906 54 19.8363V15.4869C54 14.9325 53.5506 14.4831 52.9963 14.4831H38.7434V8.08908C38.7434 6.0434 37.0792 4.37921 35.0336 4.37921H18.9663C16.9207 4.37921 15.2565 6.0434 15.2565 8.08908V14.4833H1.00375C0.449402 14.4833 0 14.9327 0 15.4871V50.6171C0 51.1715 0.449402 51.6209 1.00375 51.6209H6.6246C7.17894 51.6209 7.62834 51.1715 7.62834 50.6171C7.62834 50.0628 7.17894 49.6134 6.6246 49.6134H2.00749V31.9783L21.6736 37.1407V42.3196C21.6736 42.8739 22.123 43.3233 22.6774 43.3233H31.3223C31.8767 43.3233 32.3261 42.8739 32.3261 42.3196V37.1406L51.9922 31.9784V49.6132H9.97049C9.41615 49.6132 8.96674 50.0626 8.96674 50.6169C8.96674 51.1713 9.41615 51.6207 9.97049 51.6207H52.9963C53.5506 51.6207 54 51.1713 54 50.6169V23.1822C54 22.6278 53.5506 22.1784 52.9963 22.1784C52.4419 22.1784 51.9925 22.6278 51.9925 23.1822V29.9029L32.3264 35.065V30.1057C32.3264 29.5513 31.877 29.1019 31.3226 29.1019H22.6777C22.1233 29.1019 21.6739 29.5513 21.6739 30.1057V35.0652L2.00749 29.9025V16.4907H51.9924V19.8363C51.9925 20.3906 52.4419 20.84 52.9963 20.84ZM23.6812 41.3158V38.9416H30.3187V41.3158H23.6812ZM30.3188 31.1094V36.934H23.6813V31.1094H30.3188ZM18.9663 6.3867H35.0336C35.9722 6.3867 36.7359 7.1504 36.7359 8.08908V9.41165C36.2256 9.14693 35.6471 8.99632 35.0336 8.99632H18.9663C18.3528 8.99632 17.7742 9.14693 17.264 9.41165V8.08908C17.2641 7.1503 18.0278 6.3867 18.9663 6.3867ZM17.2641 12.7061C17.2641 11.7674 18.0278 11.0037 18.9664 11.0037H35.0337C35.9723 11.0037 36.736 11.7674 36.736 12.7061V14.4831H17.2641V12.7061Z" fill="black"/>
</svg>
