<svg width="478" height="73" viewBox="0 0 478 73" fill="none" xmlns="http://www.w3.org/2000/svg">
<path d="M87.1716 29.7885V48.9969H97.3999C98.8017 48.9969 100.12 48.7515 101.356 48.2606C102.591 47.7475 103.672 47.0559 104.599 46.1859C105.525 45.3158 106.25 44.3007 106.773 43.1406C107.319 41.9582 107.593 40.7089 107.593 39.3927C107.593 38.0764 107.319 36.8382 106.773 35.6781C106.25 34.4957 105.525 33.4695 104.599 32.5994C103.672 31.7294 102.591 31.0489 101.356 30.5581C100.12 30.045 98.8017 29.7885 97.3999 29.7885H87.1716ZM87.1716 68.1718H76.9434V20.1843H97.3999C99.2769 20.1843 101.083 20.4185 102.817 20.887C104.551 21.3332 106.167 21.9802 107.664 22.8279C109.184 23.6534 110.562 24.6573 111.798 25.8397C113.057 26.9998 114.126 28.2937 115.005 29.7215C115.908 31.1493 116.597 32.6775 117.072 34.3061C117.571 35.9347 117.821 37.6302 117.821 39.3927C117.821 42.0252 117.286 44.5127 116.217 46.8552C115.148 49.1753 113.687 51.2055 111.834 52.9456C109.98 54.6858 107.806 56.0578 105.312 57.0617C102.841 58.0656 100.203 58.5676 97.3999 58.5676H87.1716V68.1718Z" fill="#FCD577"/>
<path d="M173.916 44.3788C173.916 46.6544 173.595 48.8518 172.954 50.9712C172.336 53.0683 171.457 55.0427 170.316 56.8944C169.176 58.7238 167.798 60.397 166.182 61.914C164.567 63.431 162.785 64.7361 160.837 65.8293C158.888 66.9002 156.786 67.7256 154.529 68.3056C152.271 68.908 149.931 69.2092 147.508 69.2092C145.084 69.2092 142.744 68.908 140.487 68.3056C138.254 67.7256 136.151 66.9002 134.179 65.8293C132.231 64.7361 130.449 63.431 128.833 61.914C127.218 60.397 125.828 58.7238 124.663 56.8944C123.523 55.0427 122.632 53.0683 121.991 50.9712C121.373 48.8518 121.064 46.6544 121.064 44.3788C121.064 42.1033 121.373 39.9058 121.991 37.7864C122.632 35.667 123.523 33.6926 124.663 31.8632C125.828 30.0339 127.218 28.3607 128.833 26.8436C130.449 25.3266 132.231 24.0326 134.179 22.9618C136.151 21.8909 138.254 21.0655 140.487 20.4854C142.744 19.8831 145.084 19.5819 147.508 19.5819C149.931 19.5819 152.271 19.8831 154.529 20.4854C156.786 21.0655 158.888 21.8909 160.837 22.9618C162.785 24.0326 164.567 25.3266 166.182 26.8436C167.798 28.3607 169.176 30.0339 170.316 31.8632C171.457 33.6926 172.336 35.667 172.954 37.7864C173.595 39.9058 173.916 42.1033 173.916 44.3788ZM163.759 44.3788C163.759 42.2817 163.331 40.3073 162.476 38.4557C161.621 36.5817 160.456 34.9642 158.983 33.6034C157.534 32.2202 155.812 31.127 153.816 30.3239C151.844 29.5207 149.741 29.1192 147.508 29.1192C145.251 29.1192 143.136 29.5207 141.164 30.3239C139.192 31.127 137.47 32.2202 135.996 33.6034C134.523 34.9642 133.359 36.5817 132.504 38.4557C131.649 40.3073 131.221 42.2817 131.221 44.3788C131.221 46.4759 131.649 48.4503 132.504 50.302C133.359 52.1313 134.523 53.7376 135.996 55.1208C137.47 56.504 139.192 57.5971 141.164 58.4003C143.136 59.2034 145.251 59.605 147.508 59.605C149.741 59.605 151.844 59.2034 153.816 58.4003C155.812 57.5971 157.534 56.504 158.983 55.1208C160.456 53.7376 161.621 52.1313 162.476 50.302C163.331 48.4503 163.759 46.4759 163.759 44.3788Z" fill="#FCD577"/>
<path d="M190.88 29.7885V48.9969H201.108C202.51 48.9969 203.829 48.7515 205.064 48.2606C206.299 47.7475 207.381 47.0559 208.307 46.1859C209.234 45.3158 209.958 44.3007 210.481 43.1406C211.028 41.9582 211.301 40.7089 211.301 39.3927C211.301 38.0764 211.028 36.8382 210.481 35.6781C209.958 34.4957 209.234 33.4695 208.307 32.5994C207.381 31.7294 206.299 31.0489 205.064 30.5581C203.829 30.045 202.51 29.7885 201.108 29.7885H190.88ZM190.88 68.1718H180.652V20.1843H201.108C202.985 20.1843 204.791 20.4185 206.525 20.887C208.26 21.3332 209.875 21.9802 211.372 22.8279C212.893 23.6534 214.271 24.6573 215.506 25.8397C216.765 26.9998 217.835 28.2937 218.714 29.7215C219.616 31.1493 220.305 32.6775 220.781 34.3061C221.28 35.9347 221.529 37.6302 221.529 39.3927C221.529 41.0436 221.303 42.6498 220.852 44.2115C220.424 45.7731 219.795 47.2567 218.963 48.6622C218.155 50.0677 217.157 51.3617 215.969 52.5441C214.781 53.7264 213.451 54.7527 211.978 55.6227L217.644 68.1718H206.775L202.32 58.5007L190.88 58.5676V68.1718Z" fill="#FCD577"/>
<path d="M248.793 68.1718H238.6V29.7885H223.24V20.1843H264.117V29.7885H248.793V68.1718Z" fill="#FCD577"/>
<path d="M279.762 68.1718H269.534V20.1843H305.315V29.7885H279.762V39.3927H295.087V48.9969H279.762V68.1718Z" fill="#FCD577"/>
<path d="M359.522 44.3788C359.522 46.6544 359.201 48.8518 358.559 50.9712C357.942 53.0683 357.063 55.0427 355.922 56.8944C354.782 58.7238 353.404 60.397 351.788 61.914C350.172 63.431 348.39 64.7361 346.442 65.8293C344.494 66.9002 342.391 67.7256 340.134 68.3056C337.877 68.908 335.537 69.2092 333.113 69.2092C330.69 69.2092 328.35 68.908 326.093 68.3056C323.859 67.7256 321.757 66.9002 319.785 65.8293C317.836 64.7361 316.054 63.431 314.439 61.914C312.823 60.397 311.433 58.7238 310.269 56.8944C309.129 55.0427 308.238 53.0683 307.596 50.9712C306.978 48.8518 306.67 46.6544 306.67 44.3788C306.67 42.1033 306.978 39.9058 307.596 37.7864C308.238 35.667 309.129 33.6926 310.269 31.8632C311.433 30.0339 312.823 28.3607 314.439 26.8436C316.054 25.3266 317.836 24.0326 319.785 22.9618C321.757 21.8909 323.859 21.0655 326.093 20.4854C328.35 19.8831 330.69 19.5819 333.113 19.5819C335.537 19.5819 337.877 19.8831 340.134 20.4854C342.391 21.0655 344.494 21.8909 346.442 22.9618C348.39 24.0326 350.172 25.3266 351.788 26.8436C353.404 28.3607 354.782 30.0339 355.922 31.8632C357.063 33.6926 357.942 35.667 358.559 37.7864C359.201 39.9058 359.522 42.1033 359.522 44.3788ZM349.365 44.3788C349.365 42.2817 348.937 40.3073 348.082 38.4557C347.226 36.5817 346.062 34.9642 344.589 33.6034C343.14 32.2202 341.417 31.127 339.421 30.3239C337.449 29.5207 335.347 29.1192 333.113 29.1192C330.856 29.1192 328.742 29.5207 326.77 30.3239C324.798 31.127 323.075 32.2202 321.602 33.6034C320.129 34.9642 318.965 36.5817 318.11 38.4557C317.254 40.3073 316.827 42.2817 316.827 44.3788C316.827 46.4759 317.254 48.4503 318.11 50.302C318.965 52.1313 320.129 53.7376 321.602 55.1208C323.075 56.504 324.798 57.5971 326.77 58.4003C328.742 59.2034 330.856 59.605 333.113 59.605C335.347 59.605 337.449 59.2034 339.421 58.4003C341.417 57.5971 343.14 56.504 344.589 55.1208C346.062 53.7376 347.226 52.1313 348.082 50.302C348.937 48.4503 349.365 46.4759 349.365 44.3788Z" fill="#FCD577"/>
<path d="M402.038 68.1718H366.257V20.1843H376.486V58.5676H402.038V68.1718Z" fill="#FCD577"/>
<path d="M417.612 68.1718H407.384V20.1843H417.612V68.1718Z" fill="#FCD577"/>
<path d="M477.2 44.3788C477.2 46.6544 476.879 48.8518 476.238 50.9712C475.62 53.0683 474.741 55.0427 473.601 56.8944C472.46 58.7238 471.082 60.397 469.467 61.914C467.851 63.431 466.069 64.7361 464.121 65.8293C462.173 66.9002 460.07 67.7256 457.813 68.3056C455.556 68.908 453.215 69.2092 450.792 69.2092C448.369 69.2092 446.028 68.908 443.771 68.3056C441.538 67.7256 439.435 66.9002 437.463 65.8293C435.515 64.7361 433.733 63.431 432.117 61.914C430.502 60.397 429.112 58.7238 427.948 56.8944C426.807 55.0427 425.916 53.0683 425.275 50.9712C424.657 48.8518 424.348 46.6544 424.348 44.3788C424.348 42.1033 424.657 39.9058 425.275 37.7864C425.916 35.667 426.807 33.6926 427.948 31.8632C429.112 30.0339 430.502 28.3607 432.117 26.8436C433.733 25.3266 435.515 24.0326 437.463 22.9618C439.435 21.8909 441.538 21.0655 443.771 20.4854C446.028 19.8831 448.369 19.5819 450.792 19.5819C453.215 19.5819 455.556 19.8831 457.813 20.4854C460.07 21.0655 462.173 21.8909 464.121 22.9618C466.069 24.0326 467.851 25.3266 469.467 26.8436C471.082 28.3607 472.46 30.0339 473.601 31.8632C474.741 33.6926 475.62 35.667 476.238 37.7864C476.879 39.9058 477.2 42.1033 477.2 44.3788ZM467.043 44.3788C467.043 42.2817 466.615 40.3073 465.76 38.4557C464.905 36.5817 463.741 34.9642 462.268 33.6034C460.818 32.2202 459.096 31.127 457.1 30.3239C455.128 29.5207 453.025 29.1192 450.792 29.1192C448.535 29.1192 446.42 29.5207 444.448 30.3239C442.476 31.127 440.754 32.2202 439.281 33.6034C437.808 34.9642 436.643 36.5817 435.788 38.4557C434.933 40.3073 434.505 42.2817 434.505 44.3788C434.505 46.4759 434.933 48.4503 435.788 50.302C436.643 52.1313 437.808 53.7376 439.281 55.1208C440.754 56.504 442.476 57.5971 444.448 58.4003C446.42 59.2034 448.535 59.605 450.792 59.605C453.025 59.605 455.128 59.2034 457.1 58.4003C459.096 57.5971 460.818 56.504 462.268 55.1208C463.741 53.7376 464.905 52.1313 465.76 50.302C466.615 48.4503 467.043 46.4759 467.043 44.3788Z" fill="#FCD577"/>
<circle cx="145.648" cy="42.1456" r="21.2881" fill="#333333"/>
<circle cx="332.02" cy="45.4518" r="21.2881" fill="#333333"/>
<circle cx="449.061" cy="45.4518" r="21.2881" fill="#333333"/>
<g clip-path="url(#clip0)">
<path d="M70.2307 19.5818H1.42065V67.065H70.2307V19.5818Z" fill="#87431F"/>
<path d="M42.3211 47.5942L30.1053 47.8019L1.42139 40.1121V44.7654L30.1053 52.4553H41.5459L70.2316 44.7654V40.1121L42.3211 47.5942Z" fill="#311513"/>
<path d="M50.0401 9.58252V15.8216C50.0401 13.8027 48.4353 12.1639 46.4586 12.1639H25.1928C23.216 12.1639 21.6113 13.8028 21.6113 15.8216V9.58252C21.6113 7.56196 23.2161 5.92487 25.1928 5.92487H46.4586C48.4354 5.92487 50.0401 7.56196 50.0401 9.58252Z" fill="#311513"/>
<path d="M41.5468 39.3391H30.1062V55.8476H41.5468V39.3391Z" fill="#FCD577"/>
<path d="M70.1388 28.1679C70.8725 28.1679 71.4672 27.5605 71.4672 26.8112V20.9324C71.4672 20.1832 70.8725 19.5757 70.1388 19.5757H51.2756V10.9334C51.2756 8.1684 49.0731 5.91904 46.3658 5.91904H25.1013C22.3939 5.91904 20.1914 8.1684 20.1914 10.9334V19.576H1.32842C0.594769 19.576 0 20.1834 0 20.9327V68.4154C0 69.1647 0.594769 69.7721 1.32842 69.7721L13.4949 69.7718C14.2286 69.7718 16.8457 69.1644 16.8457 68.4151C16.8457 67.6659 14.3575 67.0584 13.6238 67.0584L2.65685 67.0587V43.2226L28.6843 50.2003V57.2002C28.6843 57.9495 29.2791 58.5569 30.0127 58.5569H41.4541C42.1877 58.5569 42.7825 57.9495 42.7825 57.2002V50.2001L68.81 43.2228V67.0584H13.1956C12.462 67.0584 11.8672 67.6659 11.8672 68.4151C11.8672 69.1644 12.462 69.7718 13.1956 69.7718H70.1388C70.8725 69.7718 71.4672 69.1644 71.4672 68.4151V25.7872C71.4672 25.0379 70.8725 26.8112 70.1388 26.8112C69.4051 26.8112 68.8102 25.343 68.8102 26.0922L68.8104 40.4175L42.7829 47.3948V40.6916C42.7829 39.9423 42.1881 39.3349 41.4545 39.3349H30.0132C29.2795 39.3349 28.6847 39.9423 28.6847 40.6916V47.3951L2.65685 40.417V22.2893H68.8102V26.8112C68.8104 27.5605 69.4051 28.1679 70.1388 28.1679ZM31.3413 55.8435V52.6345H40.1258V55.8435H31.3413ZM40.1259 42.0483V49.921H31.3414V42.0483H40.1259ZM25.1013 8.63242H46.3658C47.6081 8.63242 48.6188 9.66465 48.6188 10.9334V12.721C47.9433 12.3632 47.1777 12.1596 46.3658 12.1596H25.1013C24.2894 12.1596 23.5236 12.3632 22.8483 12.721V10.9334C22.8484 9.66451 23.8592 8.63242 25.1013 8.63242ZM22.8484 17.1738C22.8484 15.9051 23.8592 14.8729 25.1015 14.8729H46.3659C47.6082 14.8729 48.6189 15.9051 48.6189 17.1738V19.5757H22.8484V17.1738Z" fill="black"/>
</g>
<path d="M79.8789 11.4727V14.6861H78.2002V6.03777H81.896C82.9753 6.03777 83.8313 6.28922 84.4638 6.79212C85.1008 7.29502 85.4193 7.96027 85.4193 8.78788C85.4193 9.63529 85.1074 10.2946 84.4837 10.7658C83.8644 11.237 82.9952 11.4727 81.8761 11.4727H79.8789ZM79.8789 10.2669H81.896C82.4932 10.2669 82.9488 10.1421 83.2628 9.89268C83.5769 9.63925 83.7339 9.27494 83.7339 8.79976C83.7339 8.3325 83.5747 7.96027 83.2562 7.68309C82.9377 7.40194 82.4998 7.2574 81.9424 7.24948H79.8789V10.2669Z" fill="#FCD577"/>
<path d="M102.691 10.8252H98.7228V13.4862H103.361V14.6861H97.0441V6.03777H103.314V7.24948H98.7228V9.63727H102.691V10.8252Z" fill="#FCD577"/>
<path d="M116.558 13.4862H120.944V14.6861H114.879V6.03777H116.558V13.4862Z" fill="#FCD577"/>
<path d="M134.062 13.4862H138.448V14.6861H132.383V6.03777H134.062V13.4862Z" fill="#FCD577"/>
<path d="M155.533 10.8252H151.565V13.4862H156.203V14.6861H149.887V6.03777H156.157V7.24948H151.565V9.63727H155.533V10.8252Z" fill="#FCD577"/>
<path d="M179.553 13.4862H183.938V14.6861H177.874V6.03777H179.553V13.4862Z" fill="#FCD577"/>
<path d="M197.149 14.6861H195.477V6.03777H197.149V14.6861Z" fill="#FCD577"/>
<path d="M217.028 14.6861H215.349L211.043 8.55029V14.6861H209.364V6.03777H211.043L215.363 12.1973V6.03777H217.028V14.6861Z" fill="#FCD577"/>
<path d="M229.164 14.6861V6.03777H232.017C232.871 6.03777 233.627 6.20804 234.286 6.54859C234.95 6.88914 235.463 7.37224 235.826 7.99789C236.188 8.62355 236.37 9.34028 236.37 10.1481V10.5817C236.37 11.4014 236.186 12.1221 235.819 12.7438C235.456 13.3655 234.936 13.8446 234.26 14.1812C233.587 14.5178 232.815 14.6861 231.944 14.6861H229.164ZM230.843 7.24948V13.4862H231.937C232.818 13.4862 233.492 13.2407 233.961 12.7497C234.434 12.2547 234.675 11.5459 234.684 10.6233V10.1421C234.684 9.20366 234.457 8.48693 234.001 7.99195C233.545 7.49697 232.884 7.24948 232.017 7.24948H230.843Z" fill="#FCD577"/>
<path d="M251.743 11.3539H249.872V14.6861H248.194V6.03777H251.591C252.705 6.03777 253.566 6.2615 254.172 6.70896C254.778 7.15643 255.081 7.80386 255.081 8.65127C255.081 9.2294 254.924 9.71448 254.61 10.1065C254.3 10.4946 253.867 10.7935 253.309 11.0034L255.479 14.6088V14.6861H253.681L251.743 11.3539ZM249.872 10.1481H251.597C252.164 10.1481 252.606 10.0214 252.924 9.76794C253.243 9.51055 253.402 9.16011 253.402 8.7166C253.402 8.2533 253.254 7.89494 252.958 7.64151C252.666 7.38808 252.228 7.2574 251.644 7.24948H249.872V10.1481Z" fill="#FCD577"/>
<path d="M274.535 10.5876C274.535 11.435 274.372 12.1795 274.044 12.821C273.717 13.4585 273.248 13.9495 272.638 14.294C272.032 14.6346 271.333 14.8049 270.541 14.8049C269.758 14.8049 269.059 14.6346 268.444 14.294C267.834 13.9495 267.36 13.4605 267.024 12.8269C266.692 12.1933 266.524 11.4628 266.52 10.6351V10.1481C266.52 9.30464 266.686 8.56019 267.018 7.91474C267.354 7.26928 267.825 6.77628 268.431 6.43574C269.041 6.09123 269.74 5.91898 270.528 5.91898C271.315 5.91898 272.012 6.08925 272.618 6.4298C273.228 6.76638 273.699 7.25344 274.031 7.89098C274.363 8.52455 274.531 9.26306 274.535 10.1065V10.5876ZM272.857 10.1362C272.857 9.17793 272.653 8.44337 272.246 7.93255C271.844 7.42174 271.271 7.16633 270.528 7.16633C269.802 7.16633 269.234 7.42174 268.822 7.93255C268.415 8.43941 268.207 9.15813 268.199 10.0887V10.5876C268.199 11.538 268.404 12.2725 268.816 12.7913C269.232 13.31 269.807 13.5694 270.541 13.5694C271.284 13.5694 271.855 13.316 272.253 12.8091C272.655 12.3022 272.857 11.5617 272.857 10.5876V10.1362Z" fill="#FCD577"/>
<path d="M292.941 7.24948H289.929V14.6861H288.263V7.24948H285.278V6.03777H292.941V7.24948Z" fill="#FCD577"/>
<path d="M311.639 14.6861H309.967V10.843H305.648V14.6861H303.969V6.03777H305.648V9.63727H309.967V6.03777H311.639V14.6861Z" fill="#FCD577"/>
<defs>
<clipPath id="clip0">
<rect width="71.4672" height="72.9878" fill="white"/>
</clipPath>
</defs>
</svg>
