<svg width="246" height="219" viewBox="0 0 246 219" fill="none" xmlns="http://www.w3.org/2000/svg">
<path d="M245.729 109.584C245.729 93.3152 225.376 77.8971 194.172 68.3358C201.373 36.4984 198.173 11.1687 184.071 3.05916C180.821 1.15693 177.02 0.255869 172.87 0.255869V11.419C175.17 11.419 177.02 11.8695 178.571 12.7205C185.371 16.6251 188.322 31.4926 186.021 50.615C185.471 55.3205 184.571 60.2764 183.471 65.3323C173.67 62.9295 162.969 61.0773 151.717 59.8759C144.967 50.615 137.966 42.2051 130.915 34.8465C147.217 19.6787 162.519 11.3689 172.92 11.3689V0.205811C159.168 0.205811 141.166 10.0173 122.964 27.0373C104.762 10.1175 86.7597 0.406046 73.008 0.406046V11.5692C83.3593 11.5692 98.7111 19.8289 115.013 34.8966C108.012 42.2552 101.011 50.615 94.3606 59.8759C83.0592 61.0773 72.358 62.9295 62.5568 65.3824C61.4067 60.3765 60.5566 55.5208 59.9565 50.8653C57.6062 31.7428 60.5065 16.8754 67.2573 12.9207C68.7575 12.0197 70.7078 11.6192 73.008 11.6192V0.456105C68.8075 0.456105 65.0071 1.35716 61.7067 3.2594C47.655 11.3689 44.5046 36.6486 51.7555 68.3859C20.6518 77.9972 0.399414 93.3652 0.399414 109.584C0.399414 125.853 20.7518 141.271 51.9555 150.833C44.7547 182.67 47.9551 208 62.0567 216.109C65.3071 218.012 69.1076 218.913 73.3081 218.913C87.0597 218.913 105.062 209.101 123.264 192.081C141.466 209.001 159.468 218.712 173.22 218.712C177.42 218.712 181.221 217.811 184.521 215.909C198.573 207.8 201.723 182.52 194.472 150.783C225.476 141.221 245.729 125.803 245.729 109.584ZM180.621 76.1951C178.771 82.6526 176.47 89.3105 173.87 95.9683C171.82 91.9636 169.67 87.9589 167.319 83.9542C165.019 79.9495 162.569 76.0449 160.118 72.2404C167.219 73.2916 174.07 74.5932 180.621 76.1951ZM157.718 129.508C153.818 136.266 149.817 142.673 145.667 148.63C138.216 149.281 130.665 149.631 123.064 149.631C115.513 149.631 107.962 149.281 100.561 148.68C96.4108 142.723 92.3603 136.366 88.4599 129.658C84.6594 123.1 81.209 116.442 78.0586 109.734C81.159 103.027 84.6594 96.3187 88.4099 89.761C92.3103 83.0031 96.3108 76.5955 100.461 70.6385C107.912 69.9878 115.463 69.6374 123.064 69.6374C130.615 69.6374 138.166 69.9878 145.567 70.5885C149.717 76.5455 153.768 82.9029 157.668 89.6108C161.469 96.1685 164.919 102.826 168.069 109.534C164.919 116.242 161.469 122.95 157.718 129.508ZM173.87 123C176.57 129.708 178.871 136.416 180.771 142.923C174.22 144.525 167.319 145.877 160.168 146.928C162.619 143.074 165.069 139.119 167.369 135.064C169.67 131.059 171.82 127.005 173.87 123ZM123.164 176.413C118.513 171.607 113.863 166.251 109.262 160.394C113.763 160.594 118.363 160.744 123.014 160.744C127.715 160.744 132.365 160.644 136.916 160.394C132.415 166.251 127.765 171.607 123.164 176.413ZM85.9596 146.928C78.8587 145.877 72.0079 144.575 65.4571 142.973C67.3074 136.516 69.6076 129.858 72.2079 123.2C74.2582 127.205 76.4084 131.21 78.7587 135.214C81.109 139.219 83.5093 143.124 85.9596 146.928ZM122.914 42.7558C127.565 47.5614 132.215 52.9177 136.816 58.7746C132.315 58.5744 127.715 58.4242 123.064 58.4242C118.363 58.4242 113.713 58.5243 109.162 58.7746C113.663 52.9177 118.313 47.5614 122.914 42.7558ZM85.9096 72.2404C83.4593 76.0949 81.009 80.0496 78.7087 84.1044C76.4084 88.1091 74.2582 92.1138 72.2079 96.1185C69.5076 89.4106 67.2073 82.7027 65.3071 76.1951C71.8579 74.6432 78.7587 73.2916 85.9096 72.2404ZM40.6542 134.914C22.9521 127.355 11.5007 117.444 11.5007 109.584C11.5007 101.725 22.9521 91.7633 40.6542 84.2545C44.9547 82.4023 49.6553 80.7504 54.5058 79.1986C57.3562 89.0101 61.1066 99.2221 65.7572 109.684C61.1566 120.097 57.4562 130.259 54.6559 140.02C49.7053 138.468 45.0047 136.766 40.6542 134.914ZM67.5574 206.448C60.7566 202.543 57.8062 187.676 60.1065 168.554C60.6566 163.848 61.5567 158.892 62.6568 153.836C72.458 156.239 83.1592 158.091 94.4106 159.293C101.161 168.554 108.162 176.963 115.213 184.322C98.9111 199.49 83.6093 207.8 73.2081 207.8C70.9578 207.75 69.0576 207.299 67.5574 206.448ZM186.171 168.303C188.522 187.426 185.621 202.293 178.871 206.248C177.37 207.149 175.42 207.549 173.12 207.549C162.769 207.549 147.417 199.29 131.115 184.222C138.116 176.863 145.117 168.503 151.767 159.243C163.069 158.041 173.77 156.189 183.571 153.736C184.721 158.792 185.621 163.648 186.171 168.303ZM205.424 134.914C201.123 136.766 196.423 138.418 191.572 139.97C188.722 130.158 184.971 119.946 180.321 109.484C184.921 99.0719 188.622 88.91 191.422 79.1485C196.373 80.7003 201.073 82.4023 205.474 84.2545C223.176 91.8134 234.627 101.725 234.627 109.584C234.577 117.444 223.126 127.405 205.424 134.914Z" fill="#61DAFB"/>
<path d="M123.014 132.461C135.635 132.461 145.867 122.219 145.867 109.584C145.867 96.9498 135.635 86.7075 123.014 86.7075C110.393 86.7075 100.161 96.9498 100.161 109.584C100.161 122.219 110.393 132.461 123.014 132.461Z" fill="#61DAFB"/>
</svg>
