<svg width="50" height="38" viewBox="0 0 50 38" fill="none" xmlns="http://www.w3.org/2000/svg">
<g clip-path="url(#clip0)">
<path d="M43.0273 21.5974C41.2793 21.6071 39.7656 22.027 38.4961 22.652C38.0273 21.7243 37.5586 20.9138 37.4805 20.3083C37.3926 19.6052 37.2852 19.1755 37.3926 18.3356C37.5 17.4958 37.9883 16.3044 37.9883 16.2067C37.9785 16.1188 37.8809 15.6891 36.875 15.6794C35.8691 15.6696 35 15.8747 34.9023 16.1384C34.8047 16.402 34.6094 17.0075 34.4824 17.6325C34.3066 18.5505 32.4707 21.8024 31.4258 23.5114C31.084 22.8473 30.791 22.2614 30.7324 21.7927C30.6445 21.0895 30.5371 20.6598 30.6445 19.82C30.752 18.9802 31.2402 17.7888 31.2402 17.6911C31.2305 17.6032 31.1328 17.1735 30.127 17.1638C29.1211 17.154 28.252 17.3591 28.1543 17.6227C28.0566 17.8864 27.9492 18.5114 27.7344 19.1169C27.5293 19.7224 25.0879 25.152 24.4531 26.5681C24.1309 27.2907 23.8477 27.8669 23.6426 28.2575C23.4375 28.6481 23.6328 28.2868 23.6133 28.3259C23.4375 28.6579 23.3398 28.8434 23.3398 28.8434V28.8532C23.2031 29.0974 23.0566 29.3317 22.9883 29.3317C22.9395 29.3317 22.8418 28.6774 23.0078 27.779C23.3691 25.8942 24.248 22.9548 24.2383 22.8473C24.2383 22.7985 24.4043 22.2809 23.6719 22.0173C22.959 21.7536 22.7051 22.1931 22.6465 22.1931C22.5879 22.1931 22.5391 22.3493 22.5391 22.3493C22.5391 22.3493 23.3301 19.0388 21.0254 19.0388C19.5801 19.0388 17.5879 20.611 16.6016 22.0466C15.9766 22.3884 14.6484 23.111 13.2422 23.8825C12.7051 24.1755 12.1484 24.488 11.6211 24.7712L11.5137 24.654C8.7207 21.6755 3.55468 19.5661 3.76953 15.5622C3.84765 14.1071 4.35546 10.2692 13.6914 5.62079C21.3379 1.8122 27.4609 2.85712 28.5254 5.18134C30.0391 8.50165 25.2539 14.6735 17.3047 15.5622C14.2773 15.904 12.6855 14.7321 12.2852 14.2927C11.8652 13.8337 11.8066 13.8141 11.6504 13.902C11.3965 14.0388 11.5527 14.4489 11.6504 14.6931C11.8848 15.3083 12.8613 16.402 14.5215 16.9489C15.9766 17.4274 19.5312 17.6911 23.8281 16.0309C28.6426 14.1657 32.4023 8.98993 31.2988 4.66376C30.1758 0.259462 22.8711 -1.18585 15.9668 1.26532C11.8555 2.73016 7.40234 5.01532 4.19922 8.01337C0.390621 11.5681 -0.214848 14.6735 0.0390588 15.9626C0.927731 20.5622 7.26562 23.5602 9.80468 25.777C9.67773 25.8454 9.56054 25.9138 9.45312 25.9724C8.18359 26.5974 3.34961 29.1266 2.13867 31.8024C0.771481 34.8298 2.35351 37.0075 3.4082 37.3005C6.66992 38.2087 10.0098 36.5778 11.8164 33.8923C13.6133 31.2067 13.3984 27.7204 12.5684 26.1286L12.5391 26.07L13.5352 25.4841C14.1797 25.1032 14.8144 24.7516 15.3711 24.4489C15.0586 25.2985 14.834 26.3044 14.7168 27.7692C14.5801 29.488 15.2832 31.7145 16.2109 32.5934C16.6211 32.9743 17.1094 32.9841 17.4121 32.9841C18.4863 32.9841 18.9746 32.0954 19.5117 31.0309C20.1758 29.7321 20.7617 28.2282 20.7617 28.2282C20.7617 28.2282 20.0293 32.3005 22.0312 32.3005C22.7637 32.3005 23.4961 31.3532 23.8281 30.8649V30.8747C23.8281 30.8747 23.8477 30.8454 23.8867 30.777C23.9648 30.6599 24.0039 30.5915 24.0039 30.5915V30.572C24.2969 30.0641 24.9512 28.902 25.9277 26.9782C27.1875 24.4977 28.3984 21.3923 28.3984 21.3923C28.3984 21.3923 28.5156 22.154 28.877 23.404C29.0918 24.1462 29.5605 24.9567 29.9219 25.7477C29.6289 26.1579 29.4531 26.3923 29.4531 26.3923L29.4629 26.402C29.2285 26.7145 28.9648 27.0466 28.6914 27.3786C27.6953 28.57 26.5039 29.9274 26.3477 30.3181C26.1621 30.777 26.2012 31.1188 26.5625 31.3923C26.8262 31.5876 27.2949 31.6266 27.793 31.5876C28.6914 31.529 29.3164 31.3044 29.6289 31.1677C30.1172 30.9919 30.6738 30.7282 31.2109 30.3376C32.1875 29.6149 32.7832 28.5895 32.7246 27.2224C32.6953 26.4704 32.4512 25.7282 32.1484 25.0251C32.2363 24.8981 32.3242 24.7712 32.4121 24.6345C33.9551 22.3786 35.1465 19.8981 35.1465 19.8981C35.1465 19.8981 35.2637 20.6599 35.625 21.9099C35.8105 22.5446 36.1816 23.238 36.5137 23.9216C35.0684 25.1032 34.1602 26.4704 33.8477 27.3688C33.2715 29.029 33.7207 29.7809 34.5703 29.9567C34.9512 30.0349 35.498 29.8591 35.9082 29.6833C36.416 29.5173 37.0312 29.2341 37.5977 28.8141C38.5742 28.0915 39.5117 27.0856 39.4629 25.7282C39.4336 25.1032 39.2676 24.488 39.043 23.902C40.2734 23.3942 41.8652 23.1013 43.8867 23.3454C48.2324 23.8532 49.0918 26.5681 48.9258 27.7009C48.7598 28.8337 47.8516 29.4587 47.5488 29.654C47.2461 29.8395 47.1484 29.9079 47.1777 30.0446C47.2168 30.2497 47.3535 30.2399 47.6172 30.2009C47.9785 30.1423 49.9023 29.2731 49.9805 27.1833C50.0977 24.4977 47.5488 21.5681 43.0273 21.5974V21.5974ZM9.51172 32.8962C8.07617 34.4684 6.05468 35.0641 5.19531 34.5563C4.26757 34.0192 4.6289 31.7048 6.39648 30.0349C7.4707 29.0192 8.86718 28.0817 9.78515 27.5056C9.99023 27.3786 10.3027 27.1931 10.6738 26.9684C10.7324 26.9294 10.7715 26.9099 10.7715 26.9099C10.8398 26.8708 10.918 26.822 10.9961 26.7731C11.6504 29.1559 11.0254 31.2458 9.51172 32.8962V32.8962ZM20.0098 25.7575C19.5117 26.9782 18.457 30.113 17.8223 29.9372C17.2754 29.7907 16.9434 27.4177 17.7148 25.0739C18.1055 23.8923 18.9355 22.486 19.4238 21.9391C20.2148 21.0602 21.0742 20.7673 21.2891 21.1286C21.543 21.5974 20.3223 24.9958 20.0098 25.7575ZM28.6719 29.8981C28.457 30.0056 28.2617 30.0837 28.1738 30.0251C28.1055 29.986 28.2617 29.8395 28.2617 29.8395C28.2617 29.8395 29.3457 28.6774 29.7754 28.1403C30.0195 27.8278 30.3125 27.4665 30.625 27.0563V27.1735C30.625 28.5798 29.2773 29.5173 28.6719 29.8981V29.8981ZM35.3516 28.3747C35.1953 28.2575 35.2148 27.8962 35.7422 26.7634C35.9473 26.3141 36.416 25.5622 37.2266 24.8493C37.3242 25.1423 37.3828 25.4255 37.373 25.6891C37.3633 27.447 36.1133 28.1013 35.3516 28.3747Z" fill="#CF649A"/>
</g>
<defs>
<clipPath id="clip0">
<rect width="50" height="37.5" fill="white" transform="translate(0 0.0543823)"/>
</clipPath>
</defs>
</svg>
