<svg width="50" height="51" viewBox="0 0 50 51" fill="none" xmlns="http://www.w3.org/2000/svg">
<g clip-path="url(#clip0)">
<mask id="mask0" mask-type="alpha" maskUnits="userSpaceOnUse" x="0" y="0" width="50" height="51">
<path fill-rule="evenodd" clip-rule="evenodd" d="M35.4559 50.4629C36.2434 50.7698 37.1414 50.7501 37.9363 50.3676L48.2305 45.4143C49.3121 44.8938 50 43.7989 50 42.5979V9.01101C50 7.81 49.3121 6.71525 48.2305 6.19474L37.9363 1.24123C36.8932 0.739287 35.6723 0.862232 34.7568 1.52782C34.626 1.62291 34.5014 1.72907 34.3846 1.84606L14.6775 19.8251L6.09359 13.3092C5.29451 12.7026 4.17682 12.7523 3.43467 13.4274L0.681515 15.9318C-0.226276 16.7576 -0.227317 18.1857 0.679267 19.0128L8.12355 25.8044L0.679267 32.596C-0.227317 33.4231 -0.226276 34.8512 0.681515 35.677L3.43467 38.1813C4.17682 38.8565 5.29451 38.9061 6.09359 38.2997L14.6775 31.7836L34.3846 49.7628C34.6963 50.0747 35.0623 50.3096 35.4559 50.4629ZM37.5076 14.4538L22.5545 25.8044L37.5076 37.1549V14.4538Z" fill="white"/>
</mask>
<g mask="url(#mask0)">
<path d="M48.2305 6.20247L37.9283 1.24214C36.7359 0.667981 35.3107 0.910173 34.3748 1.84603L0.649162 32.596C-0.257973 33.4231 -0.25693 34.8512 0.651412 35.677L3.40623 38.1813C4.14885 38.8565 5.26723 38.9061 6.06678 38.2997L46.6803 7.48931C48.0428 6.45568 49.9998 7.42747 49.9998 9.13771V9.0181C49.9998 7.81761 49.3121 6.72326 48.2305 6.20247Z" fill="#0065A9"/>
<g filter="url(#filter0_d)">
<path d="M48.2305 45.4063L37.9283 50.3667C36.7359 50.9407 35.3107 50.6985 34.3748 49.7628L0.649162 19.0128C-0.257973 18.1857 -0.25693 16.7575 0.651412 15.9318L3.40623 13.4274C4.14885 12.7523 5.26723 12.7026 6.06678 13.3091L46.6803 44.1194C48.0428 45.153 49.9998 44.1813 49.9998 42.471V42.5907C49.9998 43.7911 49.3121 44.8854 48.2305 45.4063Z" fill="#007ACC"/>
</g>
<g filter="url(#filter1_d)">
<path d="M37.9289 50.3674C36.7361 50.9411 35.3109 50.6987 34.375 49.7628C35.5281 50.9159 37.5 50.0991 37.5 48.4682V3.14041C37.5 1.50955 35.5281 0.692799 34.375 1.846C35.3109 0.910053 36.7361 0.667519 37.9289 1.24117L48.2293 6.19469C49.3117 6.7152 50 7.80994 50 9.01096V42.5979C50 43.7989 49.3117 44.8936 48.2293 45.4141L37.9289 50.3674Z" fill="#1F9CF0"/>
</g>
<g style="mix-blend-mode:overlay" opacity="0.25">
<path style="mix-blend-mode:overlay" opacity="0.25" fill-rule="evenodd" clip-rule="evenodd" d="M35.4254 50.4631C36.2129 50.7697 37.1109 50.7502 37.9057 50.3678L48.1998 45.4143C49.2816 44.8938 49.9695 43.799 49.9695 42.5981V9.01113C49.9695 7.81011 49.2816 6.71537 48.2 6.19486L37.9057 1.24135C36.8627 0.739409 35.6418 0.862354 34.7262 1.52795C34.5955 1.62303 34.4709 1.72919 34.3539 1.84618L14.647 19.8252L6.06307 13.3093C5.264 12.7027 4.14629 12.7524 3.40414 13.4275L0.650998 15.9319C-0.256793 16.7577 -0.257834 18.1859 0.64875 19.013L8.09305 25.8045L0.64875 32.5961C-0.257834 33.4233 -0.256793 34.8514 0.650998 35.6772L3.40414 38.1815C4.14629 38.8567 5.264 38.9063 6.06307 38.2998L14.647 31.7838L34.3539 49.7629C34.6656 50.0748 35.0318 50.3098 35.4254 50.4631ZM37.4771 14.4539L22.524 25.8045L37.4771 37.1551V14.4539Z" fill="url(#paint0_linear)"/>
</g>
</g>
</g>
<defs>
<filter id="filter0_d" x="-21.3639" y="-8.44784" width="92.6971" height="80.4562" filterUnits="userSpaceOnUse" color-interpolation-filters="sRGB">
<feFlood flood-opacity="0" result="BackgroundImageFix"/>
<feColorMatrix in="SourceAlpha" type="matrix" values="0 0 0 0 0 0 0 0 0 0 0 0 0 0 0 0 0 0 127 0"/>
<feOffset/>
<feGaussianBlur stdDeviation="10.6667"/>
<feColorMatrix type="matrix" values="0 0 0 0 0 0 0 0 0 0 0 0 0 0 0 0 0 0 0.25 0"/>
<feBlend mode="overlay" in2="BackgroundImageFix" result="effect1_dropShadow"/>
<feBlend mode="normal" in="SourceGraphic" in2="effect1_dropShadow" result="shape"/>
</filter>
<filter id="filter1_d" x="13.0416" y="-20.4002" width="58.2918" height="92.409" filterUnits="userSpaceOnUse" color-interpolation-filters="sRGB">
<feFlood flood-opacity="0" result="BackgroundImageFix"/>
<feColorMatrix in="SourceAlpha" type="matrix" values="0 0 0 0 0 0 0 0 0 0 0 0 0 0 0 0 0 0 127 0"/>
<feOffset/>
<feGaussianBlur stdDeviation="10.6667"/>
<feColorMatrix type="matrix" values="0 0 0 0 0 0 0 0 0 0 0 0 0 0 0 0 0 0 0.25 0"/>
<feBlend mode="overlay" in2="BackgroundImageFix" result="effect1_dropShadow"/>
<feBlend mode="normal" in="SourceGraphic" in2="effect1_dropShadow" result="shape"/>
</filter>
<linearGradient id="paint0_linear" x1="24.9695" y1="0.93341" x2="24.9695" y2="50.6756" gradientUnits="userSpaceOnUse">
<stop stop-color="white"/>
<stop offset="1" stop-color="white" stop-opacity="0"/>
</linearGradient>
<clipPath id="clip0">
<rect width="50" height="50" fill="white" transform="translate(0 0.804382)"/>
</clipPath>
</defs>
</svg>
