<svg width="50" height="77" viewBox="0 0 50 77" fill="none" xmlns="http://www.w3.org/2000/svg">
<g clip-path="url(#clip0)">
<path d="M12.5025 76.4767C19.4011 76.4767 25 70.8386 25 63.8917V51.3066H12.5025C5.60389 51.3066 0.00500488 56.9447 0.00500488 63.8917C0.00500488 70.8386 5.60389 76.4767 12.5025 76.4767Z" fill="#09CF83"/>
<path d="M0.00500488 38.7216C0.00500488 31.7746 5.60389 26.1365 12.5025 26.1365H25V51.3066H12.5025C5.60389 51.3066 0.00500488 45.6685 0.00500488 38.7216Z" fill="#A259FF"/>
<path d="M0.00457764 13.5515C0.00457764 6.60459 5.60346 0.966492 12.5021 0.966492H24.9996V26.1366H12.5021C5.60346 26.1366 0.00457764 20.4985 0.00457764 13.5515Z" fill="#F34E1D"/>
<path d="M25 0.966492H37.4975C44.3961 0.966492 49.995 6.60459 49.995 13.5515C49.995 20.4985 44.3961 26.1366 37.4975 26.1366H25V0.966492Z" fill="#FF7262"/>
<path d="M49.995 38.7216C49.995 45.6685 44.3961 51.3066 37.4975 51.3066C30.5989 51.3066 25 45.6685 25 38.7216C25 31.7746 30.5989 26.1365 37.4975 26.1365C44.3961 26.1365 49.995 31.7746 49.995 38.7216Z" fill="#1BBCFE"/>
</g>
<defs>
<clipPath id="clip0">
<rect width="50" height="75.5102" fill="white" transform="translate(0 0.966492)"/>
</clipPath>
</defs>
</svg>
