<svg width="50" height="69" viewBox="0 0 50 69" fill="none" xmlns="http://www.w3.org/2000/svg">
<g clip-path="url(#clip0)">
<path d="M0.429511 55.453L8.7451 2.24251C8.84675 1.58993 9.35428 1.0755 10.0054 0.964881C10.6565 0.854264 11.3054 1.17251 11.6168 1.75493L20.2165 17.7948L23.6443 11.2683C23.9098 10.7636 24.4331 10.4476 25.0034 10.4476C25.5737 10.4476 26.097 10.7636 26.3625 11.2683L49.57 55.4525H0.429511V55.453Z" fill="#FFA000"/>
<path d="M29.1578 34.7254L20.2126 17.7872L0.429637 55.453L29.1578 34.7254Z" fill="#F57C00"/>
<path d="M49.5705 55.4531L43.2014 16.0403C43.1052 15.4743 42.7012 15.0094 42.1542 14.8341C41.6072 14.6589 41.0086 14.8048 40.6023 15.2105L0.429637 55.452L22.6582 67.918C24.0541 68.6974 25.7541 68.6974 27.1499 67.918L49.5705 55.452V55.4531Z" fill="#FFCA28"/>
<path d="M43.2013 16.0403C43.105 15.4744 42.7011 15.0094 42.1541 14.8342C41.6071 14.6589 41.0084 14.8048 40.6022 15.2105L32.6289 23.2042L26.359 11.268C26.0935 10.7633 25.5702 10.4474 24.9999 10.4474C24.4297 10.4474 23.9063 10.7633 23.6408 11.268L20.213 17.7945L11.6128 1.75491C11.301 1.17234 10.6513 0.854602 9.99943 0.966048C9.34752 1.07749 8.84175 1.59321 8.74124 2.24631L0.42951 55.453H0.402706L0.42951 55.4834L0.648325 55.5912L40.5906 15.6027C40.9966 15.1947 41.5968 15.048 42.1452 15.2228C42.6937 15.3975 43.0983 15.8643 43.1936 16.4319L49.5089 55.4912L49.5704 55.4525L43.2013 16.0402V16.0403ZM0.502449 55.3798L8.7451 2.62259C8.84551 1.9695 9.35252 1.45378 10.0039 1.34234C10.6552 1.23089 11.3048 1.54852 11.6172 2.1312L20.2165 18.1711L23.6443 11.6445C23.9098 11.1399 24.4331 10.8239 25.0033 10.8239C25.5736 10.8239 26.097 11.1399 26.3625 11.6445L32.505 23.327L0.502088 55.3798H0.502449Z" fill="white" fill-opacity="0.2"/>
<path opacity="0.2" d="M27.1499 67.5422C25.754 68.3216 24.054 68.3216 22.6581 67.5422L0.483273 55.1113L0.429511 55.453L22.6581 67.9149C24.054 68.6942 25.754 68.6942 27.1498 67.9149L49.5704 55.453L49.5128 55.0999L27.1499 67.5422Z" fill="#A52714"/>
<path d="M43.1376 16.0485C43.0417 15.4826 42.6392 15.0175 42.0941 14.8433C41.5491 14.6691 40.9525 14.8139 40.5476 15.2196L32.6017 23.2092L26.3543 11.2785C26.0897 10.7741 25.5682 10.4582 25 10.4582C24.4318 10.4582 23.9103 10.7741 23.6457 11.2785L20.2294 17.8022L11.6598 1.76928C11.349 1.18696 10.7016 0.869283 10.0526 0.980778C9.4035 1.09227 8.89825 1.60758 8.7982 2.26052L0.515464 55.4437L22.6663 67.8999C24.0573 68.6793 25.7514 68.6793 27.1424 67.8999L49.4845 55.4437L43.1376 16.0485Z" fill="url(#paint0_linear)"/>
</g>
<defs>
<linearGradient id="paint0_linear" x1="-1.19356" y1="12.4516" x2="59.9155" y2="44.6858" gradientUnits="userSpaceOnUse">
<stop stop-color="white" stop-opacity="0.1"/>
<stop offset="0.14" stop-color="white" stop-opacity="0.08"/>
<stop offset="0.61" stop-color="white" stop-opacity="0.02"/>
<stop offset="1" stop-color="white" stop-opacity="0"/>
</linearGradient>
<clipPath id="clip0">
<rect width="50" height="68.5567" fill="white" transform="translate(0 0.443237)"/>
</clipPath>
</defs>
</svg>
