<svg width="18" height="22" viewBox="0 0 18 22" fill="none" xmlns="http://www.w3.org/2000/svg">
<g clip-path="url(#clip0)">
<path fill-rule="evenodd" clip-rule="evenodd" d="M7.01723 18.4744C7.02243 18.5973 7.00917 18.7172 6.9833 18.8385C6.93785 19.0517 6.85007 19.2773 6.72581 19.4858C6.37259 20.0783 5.77254 20.4737 5 20.4737C3.1801 20.4737 2.46584 19.5809 1.57152 17.3451C0.965836 15.8309 0.680098 15.4737 0 15.4737V13.4737C1.8199 13.4737 2.53416 14.3666 3.42848 16.6023C4.03416 18.1166 4.3199 18.4737 5 18.4737C5 18.1836 4.99603 17.9265 4.98766 17.5785C4.96806 16.7627 4.96581 16.5961 5.0014 16.378C5.01562 15.9019 5.13854 15.5641 5.385 15.2289C3.15319 14.743 1.64792 13.7397 0.783974 12.1122L0.460337 11.3511C0.145045 10.445 0 9.41829 0 8.23259C0 6.86703 0.416346 5.64605 1.19402 4.62543C0.951427 3.65529 0.98465 2.46998 1.52031 1.13137L1.69534 0.69396L2.14407 0.550424C2.20415 0.531206 2.27718 0.513849 2.36299 0.500382C3.23676 0.363242 4.4801 0.690443 6.10555 1.7316C7.06377 1.50948 8.07285 1.39734 9.08877 1.39734C9.99663 1.39734 10.8995 1.48886 11.7616 1.6693C13.3431 0.67897 14.5522 0.368363 15.4025 0.500558C15.4873 0.513745 15.5596 0.53077 15.6192 0.549664L16.0707 0.692849L16.246 1.13292C16.7146 2.30966 16.795 3.39412 16.6245 4.34305C17.5185 5.41576 18 6.73454 18 8.23259C18 9.49553 17.9095 10.4452 17.6494 11.3691L17.3749 12.1225C16.6563 13.7482 15.0715 14.7628 12.6275 15.246C12.8816 15.5978 13 15.9548 13 16.4737V17.4737C13 17.9583 13 17.9733 12.9989 18.4737C13.0012 18.5097 13.0042 18.5273 13.0074 18.5382C13.0066 18.5385 13 20.4737 13 20.4737C12.1482 20.4737 11.5149 20.0583 11.2034 19.4031C11.0419 19.0633 10.9936 18.7389 11 18.4595V16.4737C11 16.3899 10.9971 16.385 10.7929 16.1808C10.2471 15.635 10 15.2232 10 14.4737V13.5691L10.9001 13.4787C13.5793 13.2097 15.0365 12.4656 15.5197 11.3786L15.7455 10.7614C15.9251 10.116 16 9.33002 16 8.23259C16 7.0665 15.5929 6.10323 14.823 5.33362L14.3998 4.9106L14.5725 4.33772C14.726 3.82877 14.7624 3.22655 14.6001 2.53966C14.5731 2.54649 14.5451 2.55394 14.516 2.56204C13.9805 2.71111 13.312 3.03097 12.5064 3.56945L12.139 3.81505L11.7101 3.70868C10.8804 3.50296 9.98885 3.39733 9.08877 3.39733C8.08786 3.39733 7.09846 3.52468 6.18446 3.77386L5.73841 3.89546L5.35682 3.63442C4.52363 3.06443 3.83145 2.72547 3.27642 2.56713C3.23678 2.55582 3.19904 2.5457 3.16316 2.53668C2.96952 3.33167 3.04611 3.98482 3.24223 4.47492L3.47738 5.06257L3.04689 5.52658C2.3609 6.26596 2 7.16573 2 8.23259C2 9.20935 2.11434 10.0187 2.32388 10.6284L2.58557 11.2479C3.23974 12.4754 4.6292 13.2139 7.10658 13.4794L8 13.5752V14.4737C8 15.2232 7.75291 15.635 7.20711 16.1808C7.00291 16.385 7 16.3899 7 16.4737L6.98276 16.6586C6.97136 16.7192 6.97136 16.8758 6.98709 17.5304C6.99432 17.8315 6.99844 18.0698 6.99963 18.3188C7.01158 18.3704 7.01339 18.4036 7.01723 18.4744Z" fill="#ECECEC"/>
</g>
<defs>
<clipPath id="clip0">
<rect width="18" height="21" fill="white" transform="translate(0 0.470764)"/>
</clipPath>
</defs>
</svg>
