<svg width="23" height="23" viewBox="0 0 23 23" fill="none" xmlns="http://www.w3.org/2000/svg">
<path fill-rule="evenodd" clip-rule="evenodd" d="M11.064 22.9708C4.98883 22.9708 0.0639648 18.0459 0.0639648 11.9708C0.0639648 5.89563 4.98883 0.970764 11.064 0.970764C17.1391 0.970764 22.064 5.89563 22.064 11.9708C22.064 18.0459 17.1391 22.9708 11.064 22.9708ZM11.064 20.9708C16.0345 20.9708 20.064 16.9413 20.064 11.9708C20.064 7.0002 16.0345 2.97076 11.064 2.97076C6.0934 2.97076 2.06396 7.0002 2.06396 11.9708C2.06396 16.9413 6.0934 20.9708 11.064 20.9708ZM6.06396 12.9708H12.6498L10.3569 15.2637L11.7711 16.6779L16.4782 11.9708L11.7711 7.26366L10.3569 8.67787L12.6498 10.9708H6.06396V12.9708Z" fill="#ECECEC"/>
</svg>
