<svg width="51" height="50" viewBox="0 0 51 50" fill="none" xmlns="http://www.w3.org/2000/svg">
<g clip-path="url(#clip0)">
<path d="M0.429993 0H50.43V50H0.429993V0Z" fill="#F7DF1E"/>
<path d="M13.5769 41.7836L17.403 39.468C18.1413 40.7768 18.8128 41.8842 20.4235 41.8842C21.9675 41.8842 22.9411 41.2803 22.9411 38.9311V22.9549H27.6397V38.9975C27.6397 43.8641 24.787 46.0793 20.6249 46.0793C16.8661 46.0793 14.6843 44.1326 13.5767 41.7832L13.5769 41.7836ZM30.1919 41.2801L34.0177 39.0651C35.0249 40.7098 36.3339 41.918 38.6495 41.918C40.5966 41.918 41.838 40.9446 41.838 39.602C41.838 37.991 40.5626 37.4203 38.4146 36.4809L37.2401 35.977C33.8501 34.5342 31.6015 32.7217 31.6015 28.8955C31.6015 25.3713 34.2864 22.6862 38.4819 22.6862C41.469 22.6862 43.6171 23.7268 45.1608 26.4453L41.5022 28.7949C40.6966 27.3518 39.8243 26.7813 38.4817 26.7813C37.1056 26.7813 36.2329 27.6539 36.2329 28.7949C36.2329 30.2045 37.1056 30.7754 39.1192 31.6481L40.2938 32.1514C44.288 33.8633 46.5366 35.6084 46.5366 39.535C46.5366 43.7643 43.214 46.0799 38.7501 46.0799C34.387 46.0799 31.5677 43.999 30.1917 41.2803" fill="black"/>
</g>
<defs>
<clipPath id="clip0">
<rect width="50" height="50" fill="white" transform="translate(0.429993)"/>
</clipPath>
</defs>
</svg>
