<svg width="26" height="27" viewBox="0 0 26 27" fill="none" xmlns="http://www.w3.org/2000/svg">
<g clip-path="url(#clip0)">
<path fill-rule="evenodd" clip-rule="evenodd" d="M2.78489 2.83331H20.1182C21.3148 2.83331 22.2849 3.80336 22.2849 4.99997V22.3333C22.2849 23.53 21.3148 24.5 20.1182 24.5H2.78489C1.58827 24.5 0.618225 23.53 0.618225 22.3333V4.99997C0.618225 3.80336 1.58827 2.83331 2.78489 2.83331ZM2.78492 4.99997V22.3333H20.1183V4.99997H2.78492ZM12.5349 10.4167C11.974 10.4167 11.3815 10.5881 10.8581 10.9065L10.3683 10.4167H9.28492V18H11.4516V13.6667C11.4516 13.0429 12.095 12.5833 12.5349 12.5833H13.6183C14.0581 12.5833 14.7016 13.0429 14.7016 13.6667V18H16.8683V13.6667C16.8683 11.6594 15.1284 10.4167 13.6183 10.4167H12.5349ZM7.11828 9.33331C7.71659 9.33331 8.20161 8.84828 8.20161 8.24997C8.20161 7.65166 7.71659 7.16664 7.11828 7.16664C6.51997 7.16664 6.03494 7.65166 6.03494 8.24997C6.03494 8.84828 6.51997 9.33331 7.11828 9.33331ZM6.03494 10.4167V18H8.20161V10.4167H6.03494Z" fill="#ECECEC"/>
</g>
<defs>
<clipPath id="clip0">
<rect width="25" height="27" fill="white" transform="translate(0.429993)"/>
</clipPath>
</defs>
</svg>
