<svg width="50" height="46" viewBox="0 0 50 46" fill="none" xmlns="http://www.w3.org/2000/svg">
<g clip-path="url(#clip0)">
<path d="M49.9449 22.8214C49.9449 19.5148 45.8081 16.381 39.4658 14.4376C40.9295 7.96663 40.2791 2.81832 37.4128 1.17004C36.7522 0.783405 35.9797 0.600262 35.1362 0.600262V2.86919C35.6037 2.86919 35.9797 2.96076 36.2949 3.13372C37.677 3.92734 38.2768 6.94919 37.8091 10.8359C37.6974 11.7923 37.5144 12.7996 37.2908 13.8272C35.2988 13.3388 33.1238 12.9623 30.8368 12.7182C29.4648 10.8359 28.0419 9.12653 26.6087 7.63088C29.9221 4.54799 33.0323 2.85901 35.1463 2.85901V0.590088C32.3512 0.590088 28.6923 2.58429 24.9927 6.04364C21.2931 2.60466 17.6341 0.630786 14.839 0.630786V2.89972C16.9429 2.89972 20.0632 4.57852 23.3766 7.64106C21.9537 9.13671 20.5307 10.8359 19.179 12.7182C16.8819 12.9623 14.7069 13.3388 12.7148 13.8374C12.481 12.8199 12.3082 11.833 12.1863 10.8867C11.7086 7.00005 12.2981 3.97822 13.6702 3.17442C13.9751 2.99128 14.3715 2.90988 14.839 2.90988V0.640961C13.9853 0.640961 13.2128 0.824102 12.542 1.21074C9.68597 2.85901 9.04565 7.99716 10.5194 14.4478C4.19752 16.4013 0.0811768 19.5249 0.0811768 22.8214C0.0811768 26.1281 4.21784 29.2619 10.5601 31.2054C9.09648 37.6763 9.74697 42.8247 12.6131 44.4728C13.2738 44.8596 14.0463 45.0428 14.9 45.0428C17.6951 45.0428 21.3541 43.0485 25.0537 39.5891C28.7532 43.0281 32.4122 45.0019 35.2073 45.0019C36.061 45.0019 36.8335 44.8188 37.5043 44.4322C40.3604 42.784 41.0006 37.6458 39.5268 31.1952C45.8285 29.2517 49.9449 26.118 49.9449 22.8214ZM36.7116 16.0351C36.3356 17.3476 35.8679 18.7008 35.3394 20.054C34.9228 19.24 34.4858 18.4261 34.0079 17.6121C33.5404 16.7982 33.0425 16.0045 32.5443 15.2313C33.9876 15.4449 35.3801 15.7095 36.7116 16.0351ZM32.0565 26.871C31.2638 28.2446 30.4506 29.5468 29.6071 30.7576C28.0927 30.8899 26.5579 30.9611 25.013 30.9611C23.4782 30.9611 21.9435 30.8899 20.4392 30.7678C19.5957 29.557 18.7724 28.2649 17.9796 26.9015C17.2072 25.5686 16.5059 24.2153 15.8656 22.8519C16.4957 21.4887 17.2072 20.1252 17.9695 18.7924C18.7623 17.4188 19.5754 16.1164 20.4189 14.9057C21.9333 14.7734 23.4681 14.7022 25.013 14.7022C26.5478 14.7022 28.0825 14.7734 29.5868 14.8955C30.4303 16.1063 31.2537 17.3984 32.0463 18.7618C32.8189 20.0947 33.5201 21.4478 34.1604 22.8113C33.5201 24.1747 32.8189 25.5381 32.0565 26.871ZM35.3394 25.5483C35.8882 26.9117 36.3559 28.2751 36.7421 29.5976C35.4106 29.9233 34.0079 30.1981 32.5545 30.4117C33.0526 29.6283 33.5506 28.8245 34.0181 28.0003C34.4858 27.1863 34.9228 26.3623 35.3394 25.5483ZM25.0333 36.4046C24.088 35.4277 23.1429 34.3391 22.2077 33.1487C23.1226 33.1893 24.0575 33.2198 25.0028 33.2198C25.9583 33.2198 26.9035 33.1995 27.8285 33.1487C26.9136 34.3391 25.9685 35.4277 25.0333 36.4046ZM17.4715 30.4117C16.0282 30.1981 14.6357 29.9334 13.3043 29.6078C13.6804 28.2954 14.1479 26.9422 14.6764 25.5889C15.0931 26.4029 15.5302 27.217 16.0079 28.0308C16.4856 28.8448 16.9734 29.6385 17.4715 30.4117ZM24.9825 9.23846C25.9278 10.2152 26.873 11.3039 27.8081 12.4943C26.8933 12.4536 25.9583 12.4231 25.013 12.4231C24.0575 12.4231 23.1124 12.4434 22.1874 12.4943C23.1022 11.3039 24.0474 10.2152 24.9825 9.23846ZM17.4613 15.2313C16.9633 16.0147 16.4652 16.8185 15.9977 17.6426C15.5302 18.4566 15.0931 19.2706 14.6764 20.0845C14.1276 18.7211 13.66 17.3577 13.2738 16.0351C14.6053 15.7196 16.0079 15.4449 17.4613 15.2313ZM8.26304 27.9698C4.66506 26.4334 2.33754 24.419 2.33754 22.8214C2.33754 21.2241 4.66506 19.1993 8.26304 17.6732C9.13713 17.2967 10.0925 16.9609 11.0784 16.6455C11.6578 18.6397 12.42 20.7153 13.3653 22.8418C12.4302 24.9582 11.6781 27.0237 11.1089 29.0076C10.1027 28.6922 9.14729 28.3462 8.26304 27.9698ZM13.7312 42.5092C12.3489 41.7155 11.7492 38.6938 12.2168 34.8072C12.3286 33.8507 12.5115 32.8434 12.7351 31.8157C14.7272 32.3042 16.9023 32.6806 19.1891 32.9249C20.5612 34.8072 21.9841 36.5163 23.4173 38.0121C20.1039 41.095 16.9938 42.784 14.8797 42.784C14.4223 42.7739 14.0361 42.6822 13.7312 42.5092ZM37.8396 34.7562C38.3175 38.643 37.7278 41.6647 36.3559 42.4686C36.0508 42.6517 35.6545 42.733 35.187 42.733C33.0831 42.733 29.9628 41.0544 26.6494 37.9918C28.0724 36.496 29.4953 34.7968 30.8469 32.9147C33.1441 32.6704 35.3191 32.294 37.3112 31.7954C37.5449 32.8231 37.7278 33.81 37.8396 34.7562ZM41.7528 27.9698C40.8787 28.3462 39.9234 28.682 38.9374 28.9974C38.3581 27.0031 37.5957 24.9275 36.6506 22.8011C37.5856 20.6848 38.3378 18.6194 38.9069 16.6353C39.9132 16.9508 40.8685 17.2967 41.763 17.6732C45.361 19.2095 47.6884 21.2241 47.6884 22.8214C47.6782 24.419 45.3508 26.4436 41.7528 27.9698Z" fill="#61DAFB"/>
<path d="M25.0028 27.4712C27.5681 27.4712 29.6477 25.3895 29.6477 22.8214C29.6477 20.2535 27.5681 18.1718 25.0028 18.1718C22.4376 18.1718 20.3579 20.2535 20.3579 22.8214C20.3579 25.3895 22.4376 27.4712 25.0028 27.4712Z" fill="#61DAFB"/>
</g>
<defs>
<clipPath id="clip0">
<rect width="50" height="44.5122" fill="white" transform="translate(0 0.548279)"/>
</clipPath>
</defs>
</svg>
