<svg width="50" height="49" viewBox="0 0 50 49" fill="none" xmlns="http://www.w3.org/2000/svg">
<g clip-path="url(#clip0)">
<path d="M34.6447 34.1272C36.4899 33.9363 37.8897 32.3456 37.8261 30.4367C37.7624 28.5278 36.1718 27.0007 34.263 27.0007H34.1357C32.1633 27.0643 30.6362 28.7187 30.6998 30.6912C30.7635 31.6456 31.1452 32.4728 31.7179 33.0455C29.5545 37.3087 26.2459 40.4265 21.283 43.0353C17.9108 44.8169 14.4113 45.4532 10.9118 45.0078C8.04859 44.626 5.82164 43.3535 4.42184 41.2537C2.38578 38.1358 2.1949 34.7635 3.91283 31.3911C5.12174 28.9732 7.03056 27.1916 8.23947 26.3008C7.98496 25.4736 7.6032 24.0737 7.41232 23.0557C-1.81361 29.7368 -0.859206 38.7721 1.94039 43.0353C4.04008 46.2168 8.3031 48.1893 13.0115 48.1893C14.284 48.1893 15.5566 48.062 16.8291 47.7439C24.9734 46.1531 31.1452 41.3173 34.6447 34.1272ZM45.8431 26.2371C41.0074 20.5741 33.8812 17.4563 25.7369 17.4563H24.7189C24.1462 16.3109 22.9373 15.5474 21.6012 15.5474H21.4739C19.5015 15.611 17.9744 17.2654 18.038 19.2379C18.1017 21.1468 19.6923 22.6739 21.6012 22.6739H21.7284C23.1282 22.6103 24.3371 21.7194 24.8461 20.5105H25.9914C30.8271 20.5105 35.4082 21.9103 39.544 24.6464C42.7254 26.7462 45.0159 29.4822 46.2885 32.791C47.3701 35.4634 47.3065 38.0722 46.1612 40.2992C44.3797 43.6716 41.3892 45.5169 37.4443 45.5169C34.8992 45.5169 32.4814 44.7533 31.2089 44.1806C30.509 44.8169 29.2364 45.835 28.3456 46.4713C31.0816 47.7439 33.8812 48.4438 36.5535 48.4438C42.6617 48.4438 47.1793 45.0714 48.8972 41.6991C50.7424 38.0086 50.6151 31.6456 45.8431 26.2371ZM13.5205 35.2089C13.5841 37.1178 15.1748 38.6449 17.0836 38.6449H17.2109C19.1833 38.5812 20.7104 36.9269 20.6468 34.9544C20.5831 33.0455 18.9925 31.5184 17.0836 31.5184H16.9564C16.8291 31.5184 16.6382 31.5184 16.511 31.582C13.9023 27.2552 12.8206 22.5466 13.2024 17.4563C13.4569 13.6385 14.7294 10.3298 16.9564 7.59372C18.8016 5.23943 22.3647 4.0941 24.7825 4.03047C31.527 3.90321 34.3902 12.3023 34.5811 15.6747C35.4082 15.8655 36.808 16.3109 37.7624 16.6291C36.9989 6.32113 30.6362 0.976257 24.528 0.976257C18.8016 0.976257 13.5205 5.11217 11.4208 11.2206C8.49398 19.3652 10.4028 27.1916 13.9659 33.3636C13.6478 33.809 13.4569 34.509 13.5205 35.2089Z" fill="#764ABC"/>
</g>
<defs>
<clipPath id="clip0">
<rect width="50" height="47.6562" fill="white" transform="translate(0 0.976257)"/>
</clipPath>
</defs>
</svg>
